<svg xmlns="http://www.w3.org/2000/svg" xmlns:xlink="http://www.w3.org/1999/xlink" preserveAspectRatio="xMaxYMin slice" viewBox="0 0 1370 840" version="1.1" class="sc-fCanRD fggLoU"><defs><linearGradient x1="100%" y1="50%" x2="2.15899493%" y2="50%" id="map-0-linearGradient-1"><stop stop-color="#FFFFFF" stop-opacity="0" offset="0%"></stop><stop stop-color="#FFFFFF" stop-opacity="0" offset="100%"></stop></linearGradient><pattern id="map-0-artwork-fill-pattern" width="100%" height="100%" patternContentUnits="userSpaceOnUse"><image width="400px" height="500px" transform="translate(-75, -150),scale(1.5)" preserveAspectRatio="xMidYMid slice" xlink:href="https://s7ap1.scene7.com/is/image/destqueensland/teq/consumer/global/documents/working-artwork-files/BinnaSwindley_Kurranjiartwork_TNQ.jpg?fit=wrap&amp;fmt=webp&amp;hei=900&amp;wid=900"></image></pattern><pattern id="map-0-artwork-fill-pattern--activating" width="100%" height="100%" patternContentUnits="userSpaceOnUse"><image width="400px" height="500px" transform="translate(-75, -150),scale(1.5)" preserveAspectRatio="xMidYMid slice" filter="url(#map-0-transition-filter)" xlink:href="https://s7ap1.scene7.com/is/image/destqueensland/teq/consumer/global/documents/working-artwork-files/BinnaSwindley_Kurranjiartwork_TNQ.jpg?fit=wrap&amp;fmt=webp&amp;hei=900&amp;wid=900"></image></pattern><filter id="map-0-transition-filter" primitiveUnits="userSpaceOnUse" color-interpolation-filters="linearRGB"><feGaussianBlur in="SourceGraphic" stdDeviation="3"></feGaussianBlur></filter><linearGradient x1="50%" y1="0%" x2="50%" y2="100%" id="map-0-linearGradient-4"><stop stop-color="#FFFFFF" stop-opacity="0" offset="0%"></stop><stop stop-color="#FFFFFF" offset="100%"></stop></linearGradient><linearGradient x1="50%" y1="0%" x2="50%" y2="100%" id="map-0-linearGradient-5"><stop stop-color="#FFFFFF" stop-opacity="0" offset="0%"></stop><stop stop-color="#FFFFFF" offset="100%"></stop></linearGradient></defs><g id="map-0-Maps" stroke="none" stroke-width="1" fill="none" fill-rule="evenodd"><g id="map-0-Map-Artwork-Development" transform="translate(4.000000, 0.000000)"><g id="map-0-Map" transform="translate(-4.000000, -4.000000)"><g transform="translate(51.000000, 0.000000)"><g id="map-0-Extension" opacity="0.4" fill="#00A5A4"><path d="M646.9,58.3l3.3,3.2,2.3,5.5h1.2l.9-1.6-1.3-4.1-1.4-2.5,1.1-.2,2.9,1,2-1,5,4.2.3,1.3,4.9,6.2,1.7.4,1.4-1.1,3.2-4.7h1.3l2.4,2.7,4.6,8.3,1.1.9,2.1.6,1.7-1.2h1.5l1.6,2.3,4.4,1.8h2.1l1.5-.4,3-1.6,1.1-1.5,3.3.6.3,1-2.1,1.2-.5.7v.8l1.1.9,2.2.9,1.7-.8.9-1.2h.7l4.2,3.1-.4.6.4,2.5.6.5,5-.7,1.6.7,2.9.2,2.5-.3,2.3-1.7,3-.2,3.1,4.2,3.9,2,2.7,2.2,3.3.3,1.2.5-.2-.6,1.2-3.2,1.9-1.9,1.6-.7,1.8.8,4.6-.5,2.4-1.9-.7-.4-1.8,1-.3-.8.7-2.3,2.8-.8h2.1l3.9-3v-2.2h1l1,1.2-.9,1.5-5.2,4.4,1.3,1.5-3.5,3.6v1l.5,1.5,1.5,1.4,1.6-.7.5-1.3,2.5-2.1,4.3-1.2-2.6,3.3,1,1.6,2.3-1,.5.9-2.5,3.6.8,2.1.9.8,1.3-.8,2.3-.2.4.7,2.1-.2,1.6-1.3,2.2-5.4-.8-1.1-2.9.4-1.9-.8v-.8l3.1-3.2,5.2-3.5,3.4-.6-.7,2.3,1.9,5.4,2.2,3.2h1.4l1.2-.9v-.7l-2.1-.7.2-.6,2.5-.6,3.1,1.6,3.2,4.2-5.4,3.7-1.8,2.1-3.1,5-.7,3.8-3.9-1.4-.3,2.1,1.9,3.5v3l-.5,3-2.2,3.2-.3-1-2.5.8v-5.6l-.4-.5-1,.2-1.2,3.3-2.6,2.3h-1.2l-.4-1.1-1.5-.6-3.2,1.2-2,1.7-1.1,1.9v.9l1.3,1-.8,1.8-1.4,1.1-.6,3.5,1.3,3.9,1.2.6,1.7-.4,1.3-1.5-.2,2.3-1,3.3-2,3-.8,5.7-.8,1.6-3.6,2.4-4,5.2-2.5,4.3v2.3l-3.9,2.6h-1.2l1.9,5.4,1.3,1.9,2,1.7,3.9,1.4,5.6,3.6,2.9,2.6,8.2,4.3.9.8.7,3.9,1.7,2,7.7,3.6,3.2,2.6,2.9,3.1,8.1.3,3.3,1.7,7.2,5.1,3.7,1.6h1.7l3.2,1,2.8,1.4,3.7,5.9,4.4,3.7v293.4h354v91.1l11.4,1.1,5.6-1.3,7.6-7.3-1.1,8.6,5.3-7.2,5.9,5.8,12.8-12h4.9l3.4,3.2,4.6-5.7,3.4,8.7,4.5,27.9,3.7-8.1,5.9-6.4,1.4,6.4,2.1,2.2,2.5-4.1,1-3.7v-3.4l2-2.5,12.5-3.5-.6-2.2,1.1-.4,5.6-2.1,5.7-3,2.5,3,4.5,4,4-4,9.7,4,2.2,4.3-1,7.5.6,4,1.4,1.9-.6,7-4.8,6.3-3.4,10,.8,2.5-3.4,19.5-1.5,5.7-5.7,16-.4,9.5.5,1.7h1.1l.5,2.3-3.1,10.5-.6,4.2-3.2,10.7-2.7,5.5-6.2,7.9-1.4,3.7.9,4.8-.4,5.1-5.3,4.5-2.3,2.7-4.7,2.9-.2,1.6.8,1.6-5.9,2.1-4.3,2.2-4.4,6.6-2.9,7.2-.7.6h-1.6l-1.4,1.3-.3,1.7,1.3,1.2-1,3.9-3.5,4.7-1.3,9.9-.7,2.7-1.1.8-1.8-.2-2.4,1,1.7.5,1.2,1.2-2.5,4-2.8,2.1-2.7,4-2.9,8.4,1.2,1.5-1.5,7-2,1.2-.6,2.2,1.1,3.1,2.2,2.2-.5,2.5-.8.7-1-1.1.4-.8-.4-1.7h-.8l-1.9,1.1-.2,1.2.8,1.9-1.7,1.9-3.3,1.8-1.7,3.1-.2,1.6-2.3,6.6-1.6,2.5-5.9,13-.8,6.5v8.2l-1.8,2.3-1.6,9.1-1.8,6.4-1.9,4.9v5.6l3.2,3.5.4,2.7v1.3l-.9-.3-1.3,1v4.5l1.1,4.4-54.4-27.4-2.8-.2,2.5-4.3.3-2.7-2.8-5.8-1.9-2.5-1.6-12.5-3.3-2.1-5.1-2.2-2.6,1-4.3-.8-2.9.5-2.8,3.6-2.8.3-5.1,1.8-4.1-.3-6.8-2.2-2.7-2.1-3.2-.5-1.9.3-1.1,1.1-3.2,1.4-6.3-.6-8.8-1.7-2.2-.9-3.6-3.5-2.2-1.8h-.8l-2.3.4-2.7,1.5-2.7-.2-1.1-.8h-3.8l-3.8,1-.6.7-1.1,3.9.5,3.8-5.4,1.5-1.2-.3-3.8-2.2-6.4-7.5-1.6-3.6-.7-.7-1.8-.6-3.1-2.8-2.4-3.3-5.2-2.8-4.7-3.6-2.2-.8-1.3.3-1.9-1.4-.5-.8.7-2.2-1.2-1.8-2.5-.6-2.3-1.4-1.4-3.1-.8-4.7.7-3.7v-2.3l-.4-.6-6.5-3.6-4.6-.3-3.6-1.5-.4-1-1.9-1.3-1.8.6-.5.8-1,4.4-1.4,1.8-2.6-.5-1-1.2v-.7l-1.6-4.4-2.7-2.5v-5.3l-4.4-7.2-2.5-1.7-3.5-1.6-4.8,1-4.5-1.2-2.7,1-1.7,2.4-1.5.8-.5-.7-3.4-2.1-5-2.3-5.3-.4-.9-.3-1.4-1.4v-6.6h-382v-292h3.2l-.2-270.8v-75.9l2.8.9,3,2.5-.3,5.8.5.6,2-2.5-1.2-7.6.3-.7,3.2.9,4,2,6.3,7.1.3,1.5,1.7-.6-2.1-2.7-1.1-2.3-.4-2.3.7-1.3.3-2.1,4.7.8,2-.6,2.5-2.4-5.5,1.7-2.8-1.8-2.2-2.9-.5-1.5,1.1-.6,2.4-.2,2-1.4v-.7l-3.4,1.2-3.7-.7-2.6-1.5-3-2.8.4-2.5,1.8-3.5,1.9-2.5,7.4-4.6,1.7-7.9-.2-1.4,1.5-5.7,2.2-2.3.3,2,1.1.6,3-.5,3.8-2.5,3.1-3.2-.3-1.2-1.9-2.6-1-.9-1-.2-.3-.7.3-5.5.5-1.4,1.3-.6.4.8.9.4,1.2-.2,2-1.4.8-1.7-.3-4.2.3-1,4.8-2.1,2.8,3.2,2.7-.2-2.6-.8-.9-3.3.8-2,.2-2.5-.9-.7,1.5-.6,4.4,1.4,3.9,6.6v-1l1.8-2.2-4.2-2.8,1-2.2,1.2-.6h4.3l.3-.8-.3-2.7-.8-1.7.8-1.2h2.8l3.1,2.1,4,.2,2.8,2,1.7.3,13.5-.9,4,1.3,5-3.4h4.2l1.7,3.4-1,2.3,1.7-1.7.2-.7-.6-3.6.6-1.1,4.1-1.5,3.2,1.2,2-.2h-1.2l-2.2-1.8-.3-1.4.2-8.9,1.7-2.7-4.7-3.4-1.6-2.2-1.3-.8-2.3-.4-4.4.7-3.8,2h-.6l-3-3-.6-2-3.2-1.7-2.9.2-.2-.3,3.4-4,3.4-1.5h0l-.9-1.4h0ZM1181.8,862.8l-8.1,5.9-1.5,7.2v5.2l.8,2.2,4.1,6.1.7.6,3.1,1,1.5-2.3.2-1.1-.7-7.8,1.8-7,1.5-2.1,2.3-1.1,2.8.4,1.3-1.2-1.9-1.2-2.8-1-1.6-1.9-3.6-2h0ZM801.5,198.1l1.4,1.7,1.2,3.8-.8,2h-.4l-1.8-1.3-1.9-2.9.6-1.6,1.8-1.7h0ZM788.2,195.5l.9.4-.5,3.5-1.9.4-.8-.4.6-2.6,1.8-1.2h0ZM791.4,137.2h1.3l-.2,1.5-1.2.8,1.1,3.3,2.9.5,1-1.1-.3-1.1.6-.8,1-.3.9.6.2,1.2-3,3.1-1.6,1-1.9,4.2v2.9l.9.8,4.1.6,1.1-1,.5-.8h1.3l-.8,3.9-1.6.6-4.2-1.1-3.7.5-7.8-1.9,1.1-5.4-.2-2.3.7-2.6.9-1.5,4.2-.8,1-.8-.9-2,2.6-2.1h0ZM776.6,137.4l1.3.2,1.4,1.8-.4,2-1,1.6-1.2.4v-1.1l-.9-1.7-.8.5.5,1.5h-1.3l-.5-.6.3-2.6,2.7-2.1h0ZM597.9,59.4l4.3,3.7,1.3,2.1,4,1.3,4.3-1,1.7-1.5,3.2,1.4,3.6-2.8h.9l.6,2,1.6,2.3v-.8l-.9-2.6.4-1.5,2-1.6,4.5,1.8,3.4,4.5.3,2.3-7.8,8.2h-1l-3.8,2.6-5.2,3.9-3-2.5-5.6-2.3-5.7-4.4-2.3-6-1.7-6.1.2-2.3.7-.5h0v-.2ZM596.4,64.5l4.5,11.3,2.2.6,2.3,2.1-.7,1.6-3.7.4-5.1-1.9-7.1,1.8-1.7-.3-.5-.8-.2-.8,1.7-3.1,1.4.8h1.2l1.1-1v-4.3l-.6-1.3,2.5-4.4,2.7-.6h0ZM785.3,68.8l-.3,1.6-3.1,2.3-5.8,3.1v-1.4l2.8-2.2h2.3l4.1-3.3h0ZM794.3,55l-1.5,5.8-5,7-.7.6h-1.1v-1.3l4.2-6,2.6-5.3,1.4-.7h0ZM665.2,55l1.5,4.8v3l-.9,2.1-.9-1-1.1-3-.9-5.2,2.4-.9h0v.2h0Z" id="map-0-Australia-Extension-Middle" opacity="0.5"></path></g><g id="map-0-Fades"><rect id="map-0-Australia-Left-Fade" fill="url(#map-0-linearGradient-1)" x="562" y="0" width="241" height="781"></rect><path d="M422.143559,192 L420,191.067715 L420.265487,188.514542 L421.204523,186.591409 L423.121927,185 L425,186.682594 L424.060964,190.346884 L422.59587,190.918754 L422.143559,192 Z M85.0447617,416 L83.9948695,415.122636 L83.2271544,415.859088 L83,415.603962 L83.0275113,413.87445 L86.1823927,409.623351 L87.2051454,409 L87.5754331,409.198019 L88,411.437411 L87.8587256,412.429729 L86.0686296,415.207183 L85.0447617,416 Z M401,219 L400.731641,218.101138 L399,216.535904 L399.267969,215.086726 L400.075781,213.839697 L402.195312,213 L405,217.550442 L401,219 Z M11.238088,613 L10.1272122,612.20704 L4.54379065,604.775527 L1.7339283,599.81056 L0,594.088494 L0.244138557,590.88876 L1.7339283,589 L3.60716987,589.398473 L2.8452579,591.012286 L2.98366359,592.016437 L7.42126758,603.165698 L11.238088,609.254358 L12,611.661132 L11.238088,613 Z M47.0393743,605.877584 L47.6439955,604.703357 L47.6751401,600.039642 L39.9633135,591.89059 L35.8692475,584.218696 L32.1231709,574.733597 L28.4738503,572.513769 L25.3618785,563.700842 L25.0765937,562.020411 L25.457804,558.593162 L23.3320789,555.07048 L18.9830422,550.000143 L17.7463926,546.38203 L17.5541264,538.930045 L18.9518976,535.316081 L19.7143182,530.68556 L22.6651685,521.171417 L25.045449,516.416419 L29.9334955,512.578398 L30.7905958,509.375206 L31.2660706,505.093219 L30.5040652,500.147358 L32.5031355,494.060464 L32.1231709,490.442351 L30.249925,485.272433 L27.4261449,481.28089 L26.9178644,478.264413 L31.869446,468.244066 L36.4701313,455.020526 L39.8038529,450.070516 L41.8357288,448.933632 L44.3742242,448.485517 L44.8185543,449.377598 L43.1043536,452.609834 L41.4233739,462.343886 L43.6441939,467.040794 L42.5653438,473.891143 L44.0577947,475.413904 L51.5786009,472.239757 L52.5316267,468.277259 L54.6270377,462.916477 L60.3069884,453.0538 L61.1948181,450.008278 L71.2574417,444.428832 L75.0338324,444.143367 L81.6668089,440.845573 L88.7769212,438.116636 L94.5532127,431.299065 L96.6477931,429.680872 L100.994754,427.810408 L105.089235,421.658786 L113.183933,417.884662 L114.071762,415.537038 L116.263099,414.332522 L118.356849,414.07859 L124.070436,412.050455 L128.577272,409.259695 L132.067547,406.31002 L134.859767,406.91207 L136.353879,408.402053 L137.875399,408.815314 L144.446501,405.295537 L147.841681,406.468105 L148.953337,407.736519 L151.364347,408.815314 L153.935648,409.291229 L156.124908,409.259695 L165.742787,407.292968 L171.423983,404.819208 L178.977595,397.556842 L182.754401,395.305064 L183.229876,396.224945 L184.689936,396.257308 L195.385834,394.481446 L199.25732,394.703013 L204.210147,393.053702 L209.352334,386.901665 L210.365988,384.142024 L213.826364,381.511423 L217.572441,381.161645 L226.015128,383.255337 L231.092119,385.221649 L238.106305,381.60561 L253.753785,379.322299 L257.118236,378.213214 L275.780101,370.442985 L280.922287,367.779605 L289.523189,360.611841 L296.822246,350.749579 L302.027968,339.554174 L306.788944,333.149865 L306.375343,330.230894 L307.614484,327.504032 L308.43961,326.711118 L310.69282,327.2501 L312.406605,326.33022 L314.945101,324.302085 L316.785956,321.605927 L318.912512,320.559496 L326.117304,314.882544 L327.164594,312.344885 L326.973989,310.379818 L325.959089,309.427574 L323.229989,308.667024 L321.674003,306.352178 L321.292792,299.565312 L319.262993,294.302036 L319.356842,287.291942 L320.437353,283.010785 L323.261133,278.159526 L327.482685,274.16425 L329.831821,272.673438 L334.211587,272.642318 L332.464995,268.740399 L333.924225,266.775332 L334.877666,266.394435 L335.638426,267.123451 L336.464797,267.123451 L340.335867,265.791969 L340.686348,264.775827 L339.796442,263.476709 L340.620737,260.01917 L341.606568,258.910501 L343.415449,258.529603 L345.223914,256.531757 L345.414519,254.565031 L346.144549,253.391634 L348.588365,252.504532 L350.936255,254.850497 L350.207471,255.769962 L348.493685,255.579513 L347.350054,259.54367 L349.541391,262.524879 L352.17415,264.175436 L352.873036,266.901883 L359.475283,279.238321 L367.949115,292.778445 L368.711536,295.72812 L369.345225,292.589241 L368.170865,290.305515 L368.297935,287.482391 L370.202326,281.711667 L368.64634,276.95501 L369.282105,274.228147 L371.471781,274.16259 L375.852793,279.459889 L378.390873,281.742371 L379.627522,282.283013 L380.486284,281.805854 L379.152048,281.172684 L377.565332,279.205957 L376.326606,274.258852 L379.596793,270.517922 L378.453162,269.914211 L375.819987,270.706711 L375.279316,270.325813 L373.597921,266.742554 L369.821115,262.651845 L370.01172,258.751171 L366.138989,258.814239 L363.504568,256.435911 L365.853704,256.341308 L370.932356,257.482757 L373.280246,253.930616 L373.565116,252.09127 L373.218372,250.69755 L369.377616,249.935755 L368.138475,248.825011 L368.04338,245.686546 L368.519685,244.670819 L373.884452,243.497007 L376.645943,245.654183 L375.883522,247.333784 L374.106202,247.810943 L377.786667,251.679254 L379.596793,252.060151 L379.660743,250.665186 L382.135288,247.30308 L386.32611,247.90513 L388.166966,248.730823 L389.087601,249.333289 L390.324251,252.282964 L391.276031,252.948498 L394.830672,253.137702 L396.608407,251.109152 L399.751109,252.631498 L403.304919,252.979617 L408.479081,252.2506 L412.159961,253.868793 L414.127887,253.043515 L411.462737,252.789168 L407.3994,250.886339 L404.57562,250.220391 L402.765494,250.09384 L399.941714,250.918703 L397.815573,250.918703 L397.211367,250.284288 L396.355928,246.447097 L398.227513,242.197474 L399.624038,241.880474 L401.274704,244.385768 L403.843929,242.609491 L403.591034,239.344061 L404.606765,235.633835 L408.479081,231.731916 L406.543961,230.939001 L404.6703,231.477984 L401.877664,236.234641 L400.257728,236.267005 L397.243758,233.667523 L396.259587,226.689793 L399.210438,219.935706 L400.290534,219.460206 L403.49677,221.298307 L406.06641,219.966825 L406.670616,219.079308 L406.289405,212.261738 L407.749466,211.911544 L414.889892,215.559946 L417.684604,218.25403 L424.158535,221.394154 L420.537453,218.192207 L420.350585,217.399292 L421.999174,214.386134 L421.268313,213.624339 L418.319955,213.592805 L414.889892,214.861219 L414.507851,212.83101 L415.778552,211.057221 L417.111543,210.421562 L418.095713,211.057221 L419.461925,208.709597 L418.382244,208.424131 L413.874162,211.404925 L412.922382,211.372561 L411.905821,208.678063 L413.018723,207.250734 L414.507851,206.552007 L416.538482,207.154887 L417.269342,206.932904 L419.079884,205.664905 L418.573264,204.460389 L420.632963,203.001941 L423.012413,208.361063 L423.618695,208.740716 L423.967515,207.21837 L423.523185,204.173678 L427.584445,206.552007 L427.679955,207.820421 L429.046167,208.485955 L432.251988,208.328699 L432.949627,207.662336 L432.347498,207.154887 L431.301038,207.250734 L430.379157,206.425456 L431.396548,205.442092 L427.646734,202.778298 L424.254046,201.098697 L425.396015,199.765555 L426.313744,199.449385 L422.634525,193.994001 L426.346965,188.698361 L429.552786,186.034982 L431.363327,186.795533 L438.281589,186.955277 L438.630409,182.642586 L437.961837,178.48632 L438.41032,176.107992 L439.29898,175.442458 L443.106931,177.250685 L440.121198,189.871759 L440.756549,189.206225 L442.882689,181.880791 L447.03946,184.005188 L446.404109,187.81126 L447.072681,189.046895 L449.103311,190.316554 L452.151332,186.922499 L453.770853,185.781465 L454.750871,179.723615 L457.387784,174.364078 L457.512362,172.143835 L455.261643,166.37311 L453.073214,164.977315 L454.784092,164.596418 L457.545583,165.008849 L459.925033,166.215025 L459.642655,168.87799 L457.865335,169.63854 L459.040525,173.508096 L460.498094,173.921357 L462.337704,175.792237 L463.226364,174.395197 L462.591014,172.524732 L463.957225,169.353489 L467.320845,166.69011 L469.766737,166.341991 L468.147216,170.306148 L472.050677,175.347441 L473.163579,175.665271 L476.714067,171.922682 L479.670731,166.563559 L478.175789,160.347624 L482.050181,158.793329 L485.413802,158 L487.539942,159.712795 L489.508283,162.250868 L488.906153,163.58235 L491.347892,166.594263 L492.203332,165.231662 L492.236553,164.088969 L495.251353,163.963248 L501.567485,165.993457 L504.868816,170.654267 L509.598648,173.825925 L519.913751,188.159794 L521.404541,187.430362 L527.243121,192.441366 L527.878472,195.897245 L526.229883,198.275573 L523.783991,206.520888 L524.13281,210.263892 L523.912722,217.018395 L522.10218,220.632358 L523.754922,219.681359 L524.705872,218.350292 L525.910131,210.548943 L527.625162,211.245596 L530.228854,213.814788 L531.242092,217.176479 L531.404044,213.75089 L529.082731,209.723665 L527.973982,205.284007 L531.910664,199.892106 L532.608304,200.019487 L533.530185,204.554576 L536.798295,204.649178 L537.147115,203.032645 L535.780904,200.558055 L534.705376,195.897245 L539.813096,194.438797 L555.80898,198.433658 L555.80898,283.709097 L556,605.877584 L555.588891,828.561654 L548.446388,831.669414 L540.228357,836.457605 L527.434142,842.262353 L521.56234,844.606658 L512.106829,846.448908 L498.237085,851.805541 L490.999073,853.0752 L475.92507,853.772268 L466.021076,852.822098 L458.434243,850.631314 L454.626293,852.502609 L451.29174,851.776496 L445.581891,854.884256 L435.553319,863.128741 L433.107427,864.207536 L428.219796,865.253138 L417.651383,871.091079 L413.652412,874.671849 L409.082041,877.431076 L397.243758,879.364608 L393.085742,881.015995 L389.912311,883.613402 L387.023335,887.293753 L383.437134,897.695828 L381.819274,904.512984 L378.518358,906.828244 L375.406386,910.093674 L374.233272,912.442128 L374.200881,913.549968 L372.678947,915.230399 L367.504785,918.75308 L361.570279,918.309114 L360.680788,918.657648 L358.616522,921.445919 L357.029391,922.653339 L354.681916,923.412645 L352.364756,917.96058 L349.509,916.75316 L343.540858,918.786274 L339.573447,918.213682 L334.877666,918.404546 L334.242316,919.035226 L329.32354,919.54558 L326.592779,919.006182 L324.657243,919.765488 L323.419348,921.192817 L323.038138,923.288169 L318.469427,923.761179 L317.136437,923.317213 L317.865222,921.765408 L316.849491,918.180489 L314.850421,915.612126 L314.151951,915.359024 L311.48597,915.836184 L309.581164,917.641091 L306.788944,918.433591 L297.901096,915.234548 L295.774956,915.072729 L291.45914,914.977297 L281.650656,916.690922 L275.145165,916.690922 L272.702595,917.989625 L264.036497,919.197046 L259.783801,921.541351 L254.133749,920.118171 L245.597213,919.674205 L238.995796,921.70317 L236.456055,924.49144 L232.235334,926.744463 L230.425623,928.802472 L227.569453,933.81472 L227.093978,936.349889 L222.205932,941.142229 L218.173324,943.519728 L213.699709,941.934729 L207.923418,941.395331 L201.988081,945.420067 L201.290857,946.469818 L202.496361,947.801715 L201.290857,949.162656 L198.496145,950.876281 L192.942018,952.685337 L190.910973,954.77654 L189.862852,957.535767 L186.214777,960.261799 L179.326415,963.94215 L170.916118,965.464911 L170.789048,966.319649 L171.613342,967.20758 L176.373904,968.253182 L174.248178,969.460602 L171.645733,968.983443 L169.074847,966.954478 L167.106506,966.224217 L164.949221,966.352842 L163.871202,967.112148 L163.077221,970 L160.4428,967.908797 L153.523293,964.987752 L140.35202,964.925513 L138.541894,966.605944 L137.748744,966.639138 L132.639363,964.987752 L128.419057,965.655775 L123.531011,964.26164 L115.150197,958.680949 L106.772706,956.743267 L104.708024,951.892838 L101.281699,947.926191 L95.5681125,942.092399 L90.3329071,938.602911 L84.0782341,935.337481 L81.5721292,935.051186 L79.0647785,935.652821 L77.4780633,937.71498 L73.5741872,933.561618 L73.6049166,929.976699 L71.7968668,917.168081 L71.6693814,909.998242 L73.1618323,903.085655 L74.6218927,903.496427 L76.748033,906.670574 L80.8425143,908.413243 L84.1106245,908.126947 L86.9049211,907.11454 L88.0452299,906.446517 L97.7901783,892.430478 L96.2993885,880.887369 L93.7268417,868.203228 L94.520407,865.444001 L97.1548278,862.178571 L97.0277577,863.477275 L95.0610778,865.66391 L94.9975428,867.315296 L96.3936529,871.277794 L97.347094,872.705123 L97.9807835,872.261157 L97.9172484,870.041329 L99.504379,864.207536 L98.4874028,853.996325 L99.2813834,848.764168 L98.679669,844.85976 L98.8686132,836.710707 L97.5671827,829.574062 L96.7428881,827.325189 L88.3321758,812.006297 L85.9518953,804.902846 L83.952825,800.276474 L79.0319729,791.7125 L74.8756176,781.086368 L75.1301731,780.011722 L74.049662,771.953952 L71.7636458,764.091195 L71.0664213,763.489559 L71.2250513,748.10428 L72.4629467,740.909546 L70.748746,734.913935 L69.8609163,733.486606 L69.3214912,729.810403 L67.5117804,725.528416 L60.0852386,716.711341 L59.1334586,713.827638 L58.8797336,707.421254 L56.0870981,701.774177 L49.3577809,691.720635 L46.7545047,690.135636 L44.088524,686.330809 L42.024673,677.040723 L42.4706641,674.152871 L43.6113882,671.460032 L42.9448931,667.431147 L41.2639134,661.564161 L36.566472,651.82596 L31.8059109,642.917601 L24.4429042,632.291469 L13.9371962,621.130088 L12,615.01 L13.5871305,611.840002 L13.3670418,608.317321 L13.4924509,607.396196 L14.1601918,606.923185 L14.7307615,614.346126 L15.778467,616.499567 L16.8569019,610.412673 L21.9679439,616.723625 L22.6651685,618.781634 L23.0775234,625.283449 L23.8706734,627.631904 L26.4091687,630.868289 L27.4896799,631.088197 L27.5839443,630.104834 L29.8068407,628.582073 L31.2660706,628.930607 L33.7426919,625.250256 L33.9320513,618.719396 L31.4566758,615.420772 L26.7289203,612.313012 L23.2357382,608.699048 L21.2366679,600.454564 L17.7463926,594.807486 L18.3476917,591.670681 L20.4431026,588.338864 L21.4272731,589.069125 L24.6335093,594.840679 L28.2832452,597.981633 L29.5522852,601.562403 L28.7275753,606.068448 L27.7745495,607.114049 L27.8696444,610.346285 L28.8862053,613.296375 L30.6311353,613.454045 L31.8059109,612.188536 L34.5674018,606.860947 L36.3771127,615.8025 L37.3288927,618.242236 L41.138089,623.349917 L45.452659,619.955861 L46.3728791,616.881295 L45.3255889,615.391728 L44.6590937,612.69474 L45.8338693,605.304993 L47.0393743,605.877584 Z" id="map-0-Australia-Extension" fill="#EDF0F2"></path></g><g id="map-0-Regions"><path data-region="Southern-Queensland-Country" class="active" fill="url(#map-0-artwork-fill-pattern)" d="m1204 455.7-5-3v-4.3l-1.3-8.8h-5.6l-4.4-6.1-4.5 4.8-6.9 2.7-1.2 3.8-7 4.7-5.3 6.2-2.1-7.2 2.8-5.5-.4-8.5h-8l2.9-2.8-2-2.3-6.2 1.1-5.9-3.9-6.4 6.2-4.2 1.7-5.8 7.4-5.8 2.5-1.1 3.7-1.6 5.8 1 4.5.2 4.7-1.7 4.5-8.3 10.2-9 5.1 2.4 7.1 7 2 2.5 4.2 4.5 3.2 8.5-1.3h.1l.5-.2 12.3-4.1 19.5 18.2 6.9-.3 4.8 5.5 2-.7 2.3-.7-3.8-15.1 3.8-3.8 4.8 10.7 5.6-2.5 4.9-3.8.8-.5 1.5-.8 1.1-1.9-.8-2.1 4.2-2.2 1.6-2.5 2.7-4.2-3.5-11.7 2.1.1 5.8-6.6 2.4-6.4-3.7-6.8zM1264.5 535.7l7.7 10 3.7 4.8.1.1-.1.2-1.1 5.2.8 5.6 1.6 9.4 2 8.2 7.7 6-4.8 10.5 1 4.1 1.1 4.6v2.2l.8 3 .6 2.2-12.5 3.5-2 2.5v9.1l-2.5 3.7-5 2.1-3.4-2.8-7.6 7.9-3.3 1.5-2.6-8.7-5.4-.4-5.6-7-7.2-.8-4.8.2-4.8-2.7-2.9-1.1-3.9-.4-1.4.2-2.1 1.2-3.3 1.8-4.4-.5-3.5-.2-5.3-1.7-4.4 3.6-5.7 3.2-2.9 2-2.2 1.9v2.4h-3.3l-.6-12.7 3-9h11.7l1.8-6.6.9-6.2 1.2-7.7.8-12.2 3.9-6.1 1.6-2.5-.7-1.3-3-6 3.1-2 .8-9.6 3.9-4.6-6.1-.8-3-.2-3.1 1.3-3.7-.9-7.2-.4-.3-1.9 1.9-4.4-2.3-1.4-1.1-.5-.2-2.5 2.6-1.4 6.6-1.6 7.8-1.1 5.8-.2 2.3.4 1.9.4 2.7-.6 3.7-.8 4.7.4 2.7-5.1 4.1-.6 6.1-.2 1.3 10.3 6 3h10.4l7.4-3.2 3.9-4.2 7.6 6.1z"></path><path data-region="Brisbane" class="active" fill="url(#map-0-artwork-fill-pattern)" d="m1303.6 569.4-5.4-1.3-2.6-3-4.3-2.9-7-8.3-8.4-3.2-1.2 5.3.8 5.6 1.7 9.3 1.9 8.3 7.8 5.9-4.8 10.6 2.9 13.9 1.1-.4 1.2 1.7 9.4-.6 4.6 2.8 4.2-2.5-.1-1.1-.6-1.5-.7-1.4.1-2 .6-2.3-.8-1.4V598l-.6-1.2v-1.4l1.1-1.4 2.1-.7 1.4-.6h3.1l.2-4.9-5-8.6-2.7-9.8zM1308 565.6l-.7 4 2.7 3.2 2-2.1-.7-2.9-3.3-2.2zM1317.4 575.6l-.9-11-3.5 2.4-.5 5.4.2 3.9 3.3 1.3 1.4-2zM1318.1 579.3l-2.6 1.2-.5 3-1.2 3.4 1.3 3.1 2.5-4.2v-2.5l1.6-.5-1.1-3.5z"></path><path data-region="Great-Barrier-Reef" class="active" fill="url(#map-0-artwork-fill-pattern)" d="m1313.93 478 1.07 1.22-.32 1.9-.05 5.07-2.02 1.81-.06-3.46-1.56-1.17.25-2.69 2.67-2.68Zm-12.56 2.74c1.06-.85 1.88 1.03 2.95 1.78 1.08.75.59 1.78 0 2.26-.59.48-.88.74-1.47 1.52-.59.77-1.86 1-2.94 1.47s-2.25-2.99-2.25-2.99 1.18-1.51 1.57-2.07 1.08-1.12 2.14-1.97m-24.62-2.74 1.25 1.58-.66 1.42-2.27-.5-.07-2.08 1.75-.43Zm33.92-7 1.17.35.17 1.55-2.41 2.1-1.59-1.38.73-1.4 1.94-1.22Zm-25.56-.32c.25.45.28 1.48.16 1.71-.12.24-.85 1.46-1.53 1.41-.69-.05-1.28-.14-1.28-.14s-.72.03-.84-.25-.75-.88 0-1.25c.75-.36 1.53-.72 1.69-.96.16-.24.94-.77.94-.77s.63-.21.88.23m30.74-26.66 1.33 2.77 2.85 1.47-.77 2.97.52 1.17 1.51 1.66 1.69 2.22-1.86 2.08.62 2.2-.77.54-3.55-3.2-.39 1.48-1 1.19-2.37-1.4-.35 1.83-2.74.31-.45.8.7 3 2.64 1.72 2.07-1.18 1.83.12 1.37 2.59.54 3.71-.91.95-1.93-.52.44-2.18-1.51-1.54-2.29.67-3.14-1.39-1.61-3.21-1.34-3.52.83-3.03.11-3.08 1.41-1.93 1.94.63 2.46 1.68 1.51-.89-.59-3.01 2.07-1.7-2.09-2.12-.72-1.32.23-1.93 1.71-.62Zm-64.04 14.28 1.89.6s1.26 2.09 1.58 3.58c.31 1.49 0 .6 0 2.09s-1.26.6-1.26.6-.95-1.19-1.89-3.28-.31-.3-1.26-1.79c-.88-1.39-.13-1.49-.01-1.49h.01l.95-.3Zm16.04-8.35c.31-.23.82.22.82.22s1.7.4 2.04.49 1.77.43 2.3.6c.53.16.58.64.7.85.12.21-.22.27-.51.39s-.41.37-.97.55c-.56.18-.92.09-1.52 0s-1.82-.46-2.99-.94-.87-.43-1.02-.69c-.15-.25 0-.25 0-.8s.36-.34.58-.34.56-.33.56-.33m37.56-13.93 3.21 1.35 3.67.14.19.8-1.5 1.5-2.15.74 2.2 1.37-.17 2.17.76 1.62.32 1.17.04 1.99 1.01.58-.35 2.56-2.34-.06-2.21-1.36 1.32-1.71-1.53-1.57.03-1.46-1.87-1.17 1.26-2.14-1.74-.8-.49-1.86-1.09-2.3 1.42-1.55Zm-51.1 3.03c.64-.73 1.51-.23 2.16.82s-.65.79-1.21 1.31c-.56.52.09 1.06.56 1.58.46.52 2.7 1.32 4.09 1.5 1.4.18.28.97 0 1.35s-1.12.23-1.68.49c-.56.26.19 1.4-.51 1.32-.7-.08-1.26-1.32-1.63-1.82-.37-.49-.74 1.02-1.02 1.82s-1.12.61-2.23.62c-1.12.01-1.77-.18-2.52-.5s-.84.4-2.05 1.77c-1.21 1.36-.93-.84-1.75-1.27-.82-.43-.2-1.24-.02-1.77.19-.53-1.02-.88-1.02-.88l1.02-.62c1.02-.62.28-1.41.37-1.65.09-.24 1.58.33 3.07.59 1.49.26.75-1.23 1.31-3.39.56-2.17.65-.29 1.4 0 .74.29 1.02-.56 1.66-1.29m37.01-40.01 1.87 1.54-1.16 4.63 1.12 2.71 2.24.28 1.23 1.23.28 4.25 3.05 2.28 2.76 1.17.39-.89 2.58 3.56-.27.42 3.4 2.12.57 3.37 1.7 3.63.91 4.31-.88 2.41-1.36-1.34-.57-3.37-2.28.58-2.44-3.56 2.46-2.67-.24-.29-3.09 1.43-5.72 1.22-3.73-1.72.21-5.32-3.01-1.77-.93-3.31-1.81-2.9-4.49.62-3.29-3.34-1.38-1.69-3.44-2.8 2.21-2.26 1.72-1.52 3.38 1.92-.12 3.9 4.62 1.49 2.68 2.32 2.57.52.32-.51-1.66-3.14-4.87-1.99-.87-1.38 3.51-.7-.48-2.4 2.3-3.03Zm-44.28 17.4 1.89.3.94.59-.94 1.18c-.94 1.19-1.26 0-1.26 0l-1.26-.89.63-1.18Zm60.76-4.4 1.19 2.84-2.83.16-.17-2.59 1.81-.41Zm-97.89-7.65 1.89.89s.31 3.56.31 4.74.31.89 0 2.37-.31.59-1.57.89c-1.26.3-.94-.59-.94-.59s-.63-.89-1.57-1.18c-.95-.3-.31-.89.31-2.37.63-1.48.31 0 1.26 0s.94-.89.94-.89l-.63-3.85Zm123.21-.35.87 2.3-1.18 2.05-.35 3.57-1.6 1.09-2.78-3.36-3.09-2.35.25-2.18 4.94-.91 2.95-.19Zm-31-24 3.42 1.11.24 3.79 1.46 1.89-.93 3.86-1.84 2.76.37 3.28-2.11 1.12-.72 1.86 1.46 1.9 1.51 2.72 1.69 3.04 1.32 2.4-2.04 2.27-1.92-1.21-1.56-3.54-3.52-2.76.88-2.04.32-2.99-1.59-1.23-.17-2.8 2.61-1.15-.25-4.12-2.15-2.18-1.1-1.59-2.39-.68-.11-1.81 4.32-.59 1.91 1.04-.15-2.47 1.06-1.88Zm-85.8 26-.33 3-.33-1.87.65-1.13Zm59.14-23 1.72.25 2.53 5.43 1.93.96 2.18-.68 2.51-3.77 1.72.25.94 4.45-2.45 1.79-2.17.86-2.05 2.84-2.46-1.28-.86-3.02-2.45-1.11-2-2.04-3.83 4.58-2.35.7-1.2 2.79-5.35-1.1-.82-2.48 2.18-.68 2.08-2.48 3.7-3.85 1.27-1.71 5.25-.7Zm-48.14 8-.33 3-.33-1.88.65-1.12Zm-6.29-2.45 1.89.3.94.59-.94 1.19c-.94 1.18-1.26 0-1.26 0l-1.26-.89.63-1.18Zm62.61-5.55 1.34.8-.62 2.2-2.38-1.26.21-1.63 1.45-.11Zm-64.32-2-.33 3-.33-1.88.65-1.12Zm32.34-24 2.17 1.26 4.8 1.62.94 3.95 3.7.82 1.88 2.32 3.25 1.89 6.51 1.17 2.97 3.13 4.06.97 3.71.99-.45 4.03 1.8.93-4.87 2.91-2.22-2.13 1.23-2.69-.12-1.91-4.94-1.09-2.54-1.76-2.05.65-1.19-2.36-2.46-.37-2.87-1.39-2.99-.51.04-2.27-2.94.35-2.65-.71-.34-2.77-2.03-1.96-2.66-.88-1.41-3.05 1.67-1.15Zm-5.34 23-.33 3-.33-1.88.65-1.12Zm-7.34-.29 1.89.3.94.6-.94 1.19c-.91 1.15-1.23.08-1.26 0s-1.26-.9-1.26-.9l.63-1.19Zm-14.26-7.71 2.05 2.25 3.08.52 2.17-1.62 2.31 1.12.33 3.11 2.2 2.05.14 2.57-5.28-2.58-1.03-1.22-2.52.91-3.19.41-3.61-1.4-.36-3.66 1.66-2.14 2.07-.33Zm-12.5 6.87 1.89.3.94.59-.94 1.18c-.94 1.19-1.26 0-1.26 0l-1.26-.89.63-1.19Zm8.1-3.87-.33 3-.33-1.87.65-1.13Zm-18.51-7.92-.32 1.85-1.31-.31v-.92l1.63-.62Zm28.85-9.08.33 3.3-3.73 4.58-1.43.12-3.57-3.51-4.01-1.34-.27-1.88 5.18-.42 4.15.61 3.34-1.46Zm-38.16-.07 1.89.3.94.59-.94 1.19c-.94 1.18-1.26 0-1.26 0l-1.26-.89.63-1.18ZM1232.3 341l1.8 1.38 2.23 3.52 1.87-.12 1.23 2.42 2.19 2.69 2.38.51-.19 2.18-1.54.43-1.91-.54-1.82-1.71-1.28-.42-2.63-2.33-1.38-2.24.36-1.86-2.41-1.17-3.21-1.45 4.3-1.28Zm-34.83 11.35.14.5.38-.07v.29l-.45.06-.21.52-1.02-.11-.31-.45.45-.7 1.01-.03Zm1.75-9.33 1.26 1.78s0 .3.63 1.78 1.57.89 1.57.89l-.31.89.63 2.07-1.57.59-.94-.59-1.57-.3-.31-1.18v-1.48l-.94-1.48.94-2.07.63-.89Zm-15.8 2.98.59.24.04.4-.09.34 1.29.95.64.45.12.38-.54.24-1.02-.7-.48-.56-.32-.75.09-.37-.72-.27v-.27l.42-.08Zm29.53-.02 1.89.3.94.59-.94 1.19c-.91 1.15-1.23.09-1.26 0s-1.26-.9-1.26-.9l.63-1.19Zm-23.34.03.05.08h.15l.16.38.35.02.27-.25.36.19.03.86-.44.14.05.05.08.52-.6-.23v.16l-.55-.39.08-.78-.04-.08-.28-.05-.26-.48.43-.04.16-.1Zm-7.32.13.28.29.07.63-.75.81-.32-.67v-.36l-.23-.4.47-.2.17.17.3-.26Zm6.04-9.14.3.47-.02.62.67-.08.19.3-.32.97.75.05.29-.38.41.4-.07.33.54 1.5.84-.93-.12 1.27.97-1.36-.03 2.91.62-1.58 1.4 1.29 1.27-.04-.55 1.22-1.29.27.06.6-2.32-.37-.49.74.53.34-1.09.45-.48-.89-.76.06.79-2.01-1.77 2.24-.58-.48-.83.12-.22-.26.97-1.51.42-.1.94-1.7-.69.12-.1-.71-.61 1.19-.38-.99.41-1.92-.65-2.09 1.02-.09Zm-7.45 7.66.45.6-.67.07.22-.67Zm44.27-2.73 1.89.3.94.59-.94 1.19c-.91 1.15-1.23.09-1.26 0s-1.26-.9-1.26-.9l.63-1.19Zm-44.12-.93 1.97.44-.64 2.33-.89.11.38.59-.66.07-.53-.55h-.05l-.04-.09-.43-.45.29.03-.43-1.22 1.03-1.27Zm2.7-8 .48.48-.38 1.73.41-.15.1 1.24-.61-.57-.35.26 1.6 3.7-.71 1.2-.3-.61.03-.5-.43-1.48-.05 2.58-.64-.14-.15-2.66-.16 2.81-.37.12-.4-.87.16-.67-.71-1.82.12-.53-.41-1.08.71-.52-.15-.83.69-.78.09.72.33.61.02-.88 1.04-1.35Zm33.56-4 2.19 1.56.52 2.22 2.92.95 2.08 2.88-2.14 2.39-1.98-1.2-2.01-1.76-2.67-3.22-4.2-.12.56-3.23 4.73-.47Zm-21.29 7.38 2.25.31.75.92h-2.5l-.5-1.23Zm-15.57-2.89 1.05.22.09.81-.99-.24-.16-.78Zm-18.6-3.48c0-.89 1.26 0 2.2 0l-.63.89s-1.57 0-1.57-.89m18.31-10.01 3.57 1.55 3.69.66 1.93.23 3.37-1.8 3.69.65 1.01 2.41 1.97.94 1.75-2.76 4.48 2.2 4.22.8.19 3.17-3.6.75-4.01-.28-3.91 1.48-2.66-.89-2.77-2.66-1.7-2.19-2.08.13-1.15 3.96-2.17 1.37-1.49-1.68-.73-3.49-4.38-.61-1.34-2.04 2.14-1.9Zm-10.11 4 1.96.44-.64 2.33-1.75.23-.61-1.73 1.04-1.27Zm-19.47-3.2 1.89.3.94.59-.94 1.19c-.94 1.18-1.26 0-1.26 0l-1.26-.89.63-1.18Zm8.39-.4 1.89.3.94.59-.94 1.18c-.94 1.18-1.26 0-1.26 0l-1.26-.89.63-1.18Zm-15.95-4.02 2.25.31.75.92h-2.5l-.5-1.23Zm11.53-12.38 2.12 1.31-.06 1.99 2.49 2.01.99 2.47 1.93.96-.44 4.19-3.91.07-.42-1.42.41-1.83-1.06-3.73-3.73-2.83-1.58-.8-.26-1.61 3.52-.77Zm16.96 9.34c0-.89 1.26 0 2.2 0l-.63.89s-1.57 0-1.57-.89m8.51-.96 2.25.31.75.92h-2.5l-.5-1.23Zm-15.08-9.38 2.42 1.82 2.32 3.1 3.64-.06 2.7.9-.02 2.71-4.15-.27-2.55 1.8-1.34-3.34-1.07-1.37-3.87-1.18.17-2.9 1.75-1.2Zm-45.77 5.71 1.89.3.95.6-.94 1.19c-.94 1.19-1.26 0-1.26 0l-1.26-.89.63-1.19Zm62.84-3.3c0-.89 1.26 0 2.2 0l-.63.89s-1.57 0-1.57-.89m-23.2-4.57 1.89 1.78 1.57.6v1.19l-1.26 1.49h-1.57c-.86 0-.94-1.72-.94-2.03v-.05l-.63-1.79.94-1.19Zm-39.1-15.84 1.92.95.74 1.33.57 2.88 1.49-.33-.18-.49.94-1.19 1.89 1.78 1.57.59v1.05l1.4-.51.07-2.91.7-1.89 2.7.02 2.9 1.7 3.33 1.12 2.35 3.11 1.89 3.13-.79 3.27-2.13 1.4.43 2.08 2.29.93-.8 1.82-1.47.16-3.06-2.58-1.48-2.59 1.1-1.51 2.44-.94.15-3.08-2.3-2.3-1.03-.11-2.09 1.97-1.91-.79-.28 2.68-1.76.09-1.62-.56.61 4.65-1 .3-1.61-1.77-3.14.25-.93-2.61-.52-2.15-.73-1.09-3.23-1.12.53-3.1-1.67-2.65 1.7-.98Zm-9.36 11.17 1.89 1.79 1.58.6v1.19l-1.26 1.49h-1.58c-.94 0-.94-2.09-.94-2.09l-.63-1.79.94-1.19Zm37.93-.17 1.47.33.27 2.13-2.87.54-1.13-1.12.32-1.14 1.94-.74Zm10.74-1.62 2.25.31.75.92h-2.5l-.5-1.23Zm8.18-1.97 1.89.3.94.6-.94 1.19c-.91 1.15-1.24.08-1.26 0s-1.26-.9-1.26-.9l.63-1.19Zm-67.16-8.95 1.89 1.79 1.58.6v1.2l-1.26 1.49h-1.58c-.94 0-.94-2.09-.94-2.09l-.63-1.79.94-1.19Zm50.79-.47 1.89 1.79 1.57.59v1.19l-1.26 1.49h-1.57c-.94 0-.94-2.08-.94-2.08l-.63-1.78.94-1.19ZM1116.68 272l1.91.11 1.47 1.9 1.35 1.32-.06 1.4 2.33.53.19 1.68 1.24.81.67 1.73 2 .25.21 1.97-.94 1.3-2.3-1.27-.06-.88-1.66-1.15-.85-.83-1.04-1.33-1.9-1.14-.21-1.97-1.54.75-1.91-.04-.59-.55 1.45-2.06.23-2.51Zm21.53 9.3 1.89.3.94.59-.94 1.19c-.91 1.15-1.23.09-1.26 0s-1.26-.9-1.26-.9l.63-1.19Zm21.79-.92 2.25.31.75.92h-2.5l-.5-1.23Zm-9-3 2.25.31.75.92h-2.5l-.5-1.23Zm22.42-2.38 1.58 1.07-1.03 1.93-1.52-.21-.45-1.71 1.42-1.08Zm-34.37-.84 1.89.3.94.59-.94 1.19c-.91 1.15-1.23.08-1.26 0s-1.26-.9-1.26-.9l.63-1.19Zm-37.16.49c0-.89 1.26 0 2.2 0l-.63.89s-1.57 0-1.57-.89m2.46-36.65.63 1.46-1.28 4.9 1.63 3.07 3.77.28.59 3.62-1.32 4.4-.52 3.02 1.9 1.72-1.59 2.92.7 2.46 3.73-.38 1.51 3.91-1.87 1.44 2.48 2.36.3 1.81-2.55-.69-3.07-3.15-2.01-3.38-2.48-2.35.28-3.85-.96-3.77.71-2.87-.06-3.66-3.39-2.64-.29-1.65 1.13-1.89-1.59-2.41-4.58-1.73-.15-2.32 3.93-.06 1.72 1.73 2.71-2.32Zm53.28 36.06c0-.89 1.26 0 2.2 0l-.63.89s-1.57 0-1.57-.89m-56.32-4.06 3.69 1.43-1.85.57-2.15-1.33.31-.67Zm74.92-8 2.77 2.93-.96 2.98-1.29.3-1.8-2.17-1.41 1.55-1.73 2.41-1.31-.12-1.51-3.85 3.69-.67 3.54-3.37Zm-76.23 2.38 2.25.31.75.92h-2.5l-.5-1.23Zm62.92-13.38 2.96 5.58 3.06 1.27 1.06 3.89-1.83 2.26-6.24-1.27-.65-3.74 1.88-1.54-2.05-3.84-.11-1.61 1.92-1Zm-50.19 9 1.09.94.18 2.49-1.42.57-1.45-1.92-.12-1.74 1.73-.34Zm58.34-2 1.93 1.62-.89 1.38-1.88-.82-.23-1.32 1.07-.86Zm-45.89-.19 1.89.3.94.59-.94 1.18c-.94 1.19-1.26 0-1.26 0l-1.26-.89.63-1.18Zm48.33-1.81 1.49 1.24-.66 1.76-2.06-.42-.29-1.84 1.51-.74Zm-55.51 1.38 2.25.31.75.92h-2.5l-.5-1.23Zm13.18.01c0-.89 1.26 0 2.2 0l-.63.89s-1.57 0-1.57-.89m-19.64-6.12 1.89.3.94.59-.94 1.19c-.94 1.18-1.26 0-1.26 0l-1.26-.89.63-1.18Zm20.56-3.06 1.89 1.78 1.57.59v1.19l-1.26 1.48h-1.57c-.94 0-.94-2.07-.94-2.07l-.63-1.78.94-1.18Zm65.38-7.21 2.37 1.05.15 1.8-3.32.15-.68-1.77 1.48-1.23ZM1094 240l.87 3-1.74-.49.87-2.51Zm55.1-5 1.89.9-1.04 2.1-2.21-.54-.75-1.31 2.11-1.15Zm-61.07.47c0-.89 1.26 0 2.2 0l-.63.89s-1.57 0-1.57-.89m-4.98-25.47 1.51.85.26 3.07 1.33.51 1.7-2.85 2.06.47-.8 3.05-2.84 1.47.3 2.29 2.64 2.06 2.12-2.62 1.2 1.04-.17 4.04 1.73 3.23-1.82 2.17.46 2.37 1 1.74 2.28 1.48-.55 1.66-1.86-1.05-.22.83-1.76.23-.61-1.73.63-.78-1.53-2.71-1.55-5.72-4.39-2.88-1.09-4.72-3.07-2.54 1.91-2.18 1.14-2.73Zm-.05 24.86c0-.9 1.26 0 2.2 0l-.63.89s-1.57 0-1.57-.89m-.15-1.42c0-.89 1.26 0 2.2 0l-.63.89s-1.57 0-1.57-.89m21.03-.25c0-.89 1.26 0 2.2 0l-.63.89s-1.57 0-1.57-.89m57.82-7.19 3.3 1.08-.49.98-2.86-.28.67 1.2-1.43 1.02-2.2-1.41-2.46-.03-1.24-1.31.85-1.13 5.85-.12Zm-84.52-25 1.79.65 1.48 2.36 2.16-.05.34-2.64 2.01.13.75 2.74 1.3 2.2-.97 4.62-2.08-1.39-3.34-.04-4.03-1.86-.58-2.75 1.18-3.96Zm5.62-5 2.19.89-1.37 2.11-1.63-1.37.81-1.63Zm43.8-3 1.4 2.22-1.86.78-1.14-.59.38-1.67 1.23-.74Zm-43.13-19 1.16 6.34-.5 2.29.87 2.19-.54 2.77.48 3.98-.78 3.43-1.53-.21.04-5.71-1.09-1.13-.33-1.1 1.56-1.88-1.59-.21-.21-1.35 2.01-1.19-.81-7.65 1.28-.57Zm-3.44 5 1.97.44-.64 2.33-1.76.23-.61-1.73 1.03-1.27Zm-4.68-20 4.97 2.81 2.25 3.87.43 6.32-1.85-.8-.24-3.61-2.08-4.24-4.18-2.85-.08-.11-1.49.47-1.09-.79 1.37-.91.67.45 1.31-.6Zm-1.82 3 1.47 1.1-1.02.9-1.98-1.3 1.53-.7Zm-2.8-2.13s3.31 1.26.64 1.5c0 0-.64 0-1.59-.6s.48-.6.95-.9M1044.28 144l5.43 2.93 2.25 2.2 5.17 1.92 3.94 1.58 3 1.53 3.37 2.07.56 2.81-2.72.97-.66-1.62-1.85-1.03-2.51-.22-.83-1.3-3.59.38-.03-2.36-3.87.08-.38-2.66-2.67-.05-2.46-1.16-.59-1.47-3.83-1.03 2.28-3.55Zm-6.4 0 2.12 1.79-1.7 1.21-2.3-1.86 1.88-1.14ZM1022 124l3 .43-.14 1.85 2.49 1.21 1.73 5.15 1.82 1.38.56 2.72 3.55.53.25 3.59 1.74 1.47-.69 2.26-3.77.42-.96-5.7-2.64-1.94-2.25-1.02 1.39-2.37-.95-1.59-2.94-.65-1.32-1.83-.88-1.84 1.4-1.26-1.25-.18-.15-2.63Zm20.8 18.96s.97.93.32 1.35c-1.36.88-1.43-.9-1.43-.9l1.11-.45ZM1019.25 106l1.8 5.47 2.85 3.82.1 6.71-4.06-1.42.1-5.17-3.82-2.61-.23-5.37 3.25-1.43Zm1.38-22 1.67 3.32 2.7.07-1.41 1.53-.56 4.47-4.09 1.88-.34 8.74-2.76-1.22-.84-10.26 4.38-2.05-2.25-4.78 3.5-1.69Zm1.33-19 2.31.07.71 3.13-2.77 1.94-.97 8.61 3.75 3.01-1.69 3.23-6.34-4.99-.96-4.62 1.42-1.3-.03-4.33 4.58-4.76Zm3.04 9 2.18.72 1.82.3-.14 2.91-3.46.07-.4-4Zm-3.9-15 .9 2.28-2.35.72-.65-2.14 2.1-.86Zm5.13 0 1.77 1.11-1.08 1.89-1.92-1.35 1.23-1.65Zm2.16-11 .33 3.86 1.27 2.92-1.37 2.92-2.17-1.41-1.99 1.71-3.47-3.1 4.36-2.45-.03-2.38 3.07-2.07Zm-8.73-21 2.78 2.08.81 1.77-1.12 2.2 2.69.74.17 2.46-2.65 1.64 1.48 3.17-2.51 1.94-3-.14-.46-5.14-.59-1.92 1.82-1.99-2.09-2.03.11-3.51 2.56-1.27Zm-55.95 3.77s.84.7.84 1 .21.6.21.99.53 1.09.53 1.09.42.4 1.05.2c.63-.2.42 0 .53-.4l.74-1.59c.21-.4.42 0 .84.2s1.05 1.09 1.37 1.59c.32.5-.11.9-.53 1.19-.42.3-.74-.2-1.79.2s-.11 0-.74 1.09-.21.3-1.05 1.19c-.84.89-.95.89-1.37 1.19-.42.3-1.69.1-3.06-.4s-.1-.3-.63-1.39c-.53-1.09-.32-.5-.74-1.89s0-.5.21-.9.42-.3.95-.5.42-.3.84-.9c.42-.6.74-.7.74-.7s.74-.69 1.05-1.29m2.54-2.55s1.16-.1 1.79.1l.95.5s-.53.6-1.16.9c-.63.3-.74.5-1.48 0s-.21-.6-.21-.6l.11-.89ZM1024.5 14l1.57.26.93 3.51-.14 3.46-2.86.77.6-4.68-.1-3.32Zm7.61-14 2.47 1.78-.25 4.43 2.56 1.62.1 1.86-4.83.4-.39 3.74-2.41 1.17-2.38-1.86.92-3.14 1.71-1.22-1.42-2.51 1.97-3.72 1.93-2.55Zm-69.66 9c.74.4 1.05.69 1.58 1.19.53.49 0 .69-.53 2.19-.53 1.49-.21.6-.63 1.29-.42.7-1.16.89-1.16.89s-.84-1.39-.95-1.69c-.1-.3-.32-1.29-.74-2.19-.42-.89-.42-.4-1.05-1.39-.63-.99.32-.3.74-.6s.95-.3 1.47-.4c.53-.1.53.3 1.27.7m6.53 2 .11 1.09-.53.99s-.42.7-1.05.9-.32 0-.84-.2c-.53-.2-.32-.4-.42-1.1-.11-.7.21-.5.42-.8.21-.3.63-.2.63-.2l.74-.5.95-.2Z"></path><path data-region="Tropical-North-Queensland" class="active" fill="url(#map-0-artwork-fill-pattern)" d="m833.2 314.84 2.86-1.9 2.5.85 3.19 5.07 5.7-3.8 3.27 3.8v-6.08l2.98.16 10.18 1.18 6.18 3.87-1.09-4.78 10.1-.43-1.88 10.08 7.26.22 3.12.72-1.04-4.84-2.06-2.9-2.05-3.88h5.15l13.38-1.93 7.21 3.87 9.27 1.94 8.24.96h7.2l7.21 1.94h8.24l5.15 3.88h6.07l8.34-.97 4.12 2.9 1.03 2.91 5.06 1.9 6.89-.93.18.03.23-.03 6.99.93 5.95-.93.56-.06 8.12-3.82h5.15l5.15 3.88 6.18.96 6.45-1.73.22-.19 12.24-14.11-.51-11.08 4.62-5.79-.37-.31-5.26-1.78.33-2.42-.36-.3.44-.26.99-7.22 8.09 5.43 7.63 2.38.08-.07-.95-5.01 10.62 5.52 4.55-4.68 8.38-.81 3.24 1.41 2.17.12 4.64.62 3.05 3.58-6.98-13.57 1.42-11.59-1.05-7.21-3.17-6.45-1.9-12.69-4.43-.11-4.54-5.68-7.24-10.39 3.97-6.12-2.8-8.97-4.9-11.92.44-8.47 1.34-10.23-3.52-5.02-5.6-.44-9.56-6.56-3.38-5.8-4.55-11.14-6.96 4.6-4.83 1.32-4.65 5.36-7.35.52-2.91-8.86-3.73-9.18.08-10.03-1.17-10.98-.1-10.73-2.85-2.78-1.79-4.63-2.09-4.76-4.47-6.41-2.17-4.18 2.17-10.33-5.55-2.53-7.13-5.14.58-7.11-2.46-11.72-2.39-6.86-1.98-7.34-7.48-1.86-2.87 3.58.95-.96 1.81 3.68-2.77-.33-.44-1.82-2.85 3.56-2.98 7.94-.12 8.09-3.7 10.6-1.05 6.35-1.86 3.28-.61 4.26-4.52 2.84-.71 6.13-1.55 2.61 7.21 3.02-1.71 4.77-.33 2.55-5.17 1.27-1.45 4.88.91 14.58-.68 2.24-1.19 3.22-2.68 9.73 4.1 6.23-2.12 6.02-1.16 12.58 3.28 7.34-.25 8.84-3.27 8.64-2.59 8.85.41 11.52-4.4 12.32-1.93 6.56-8.51 12.36-2.1 5.35-1.16 9.85-6.65 2.67-10.49 3.83-8.75.35-8.05-5.05-5.55-1.96-7.04-2.91-5.55-3.37-2.53-7.26-7.5-7.23-7.21-2.17h-7.93l-6.05-3.04-6.95-6.27V313.19l.34.17v-.17l3.07 1.65z"></path><path data-region="Outback-Queensland" class="active" fill="url(#map-0-artwork-fill-pattern)" d="M1176 610.64h11.65l1.88-6.63.9-6.23 1.19-7.64.78-12.2 3.86-6.09.98-3.82-3.07-5.98 3.11-2.03.78-9.6 3.93-4.62-6.06-.75-3.06-.24-3.1 1.3-3.72-.94-7.17-.36-.28-1.88 1.89-4.48-2.31-1.33-1.08-.55-.17-2.43 2.53-1.48 6.63-1.6 7.84-1.09 5.74-.15 2.32.4 4.57-.22 3.74-.8 4.72.4 2.69-5.1 4.08-.63-2.83-3.83 1.17-3.35 3.91-5.26.12-4.25.35-7.59 1.59-3.38.12-.02.02-.1 1.73-5.89 6.89-6.35v-6.57l-2.05-3.47-4.84-3.63-3.31-4.87-1.06-2.32-9.46-3.94-5.54 1.5-3.34 8.38-5.77 6.53-2.06-.08 3.43 11.77-2.68 4.12-1.63 2.51-4.16 2.27.8 2.03-1.05 1.92-.95.68-.61.43-5.63 4.03-5.68 2.46-4.81-10.71-3.72 3.83 3.72 15.05-2.18.77-.06-.04-1.98.65-4.84-5.42-6.91.26-19.49-18.21-12.32 4.13-.22.19-.23-.04-.1.04-8.51 1.34-4.54-3.28-2.49-4.18-7.01-1.96-2.43-7.12 9.06-5.09 8.26-10.2 1.76-4.49-.26-4.73-1-4.48 1.65-5.77-5.82-1.15-5.5.14-2.94-6.15-1.76-6.62-5.69-1.89-3.74-2.87 1.12-6.56-2.08-2.41-1.74-.5-2.04.5-.27-1.17-4.76-1.39-1.2-10.4-2.01.38-.1-.05-.24.05-8.69-2.91-.8-5.81-1.51-4.71-4.09-2.79-1.38-4.12-4.13-2.9-4.11-9.69-1.03-4.83 1.03-4.85.95-4.1.05-.34-5.61-4.19-2.6-3.96-2.06-2.9-1.03-4.84-5.15-2.91-2.06-4.84-6.81.85.63-6.66-3.02-3.8-.49.13-6.45 1.73-6.18-.96-5.15-3.88h-5.15l-8.12 3.82-.11.06-6.18.96-.22-.03-6.99-.93-.23.03-6.98.93-.09-.03-5.06-1.9-1.03-2.91-4.12-2.9-8.24.97h-6.17l-5.15-3.88h-8.24l-7.21-1.94h-7.2l-8.24-.96-9.27-1.94-7.21-3.87-13.38 1.93h-5.15l2.05 3.88 2.06 2.9 1.04 4.84-3.12-.72-7.26-.22 1.88-10.08-10.1.43 1.09 4.78-6.18-3.87-10.18-1.18-2.98-.16v6.08l-3.27-3.8-5.7 3.8-3.19-5.07-2.5-.85-2.49 2.1-.37-.2-3.07-1.65v.17l.26 222.65h95.37v96.26h247.84l-.59-12.66 2.99-8.97z"></path><path data-region="Townsville-North-Queensland" class="active" fill="url(#map-0-artwork-fill-pattern)" d="m1085.66 288.69-2.17-.09-3.31-1.39-8.32.87-4.36 4.79-.14-.07-10.67-5.45.99 5.01.02.1-.1-.03-7.64-2.33-8.15-5.37-.93 7.24-.07.55-.31 2.43 5.28 1.74.62.21-4.59 5.83.62 11.11-12.16 14.24.06.08 3.06 3.77-.57 6.67 6.8-.9 2.1 4.82 5.17 2.87 1.08 4.83 2.08 2.89 2.64 3.94 5.64 4.14.03.02-.07.32-.93 4.11-.98 4.86 1.07 4.82 4.2 9.66 4.14 2.87 1.42 4.11 4.12 2.76 1.55 4.7.85 5.8 8.71 2.84.24-.05 2.1-.41 4.37-5.22-4.46-5.19.81-7.31 7.34-.76 4.38 6.2-.04-4.93 9.45 3.42 4.19-5.1 1.18-5.38-1.26-4.08-1.39-12.33 4.89-7.57 4.21 2.16 2.27-4.34 3.72-4.02-1.45-9.37 5.65-1.11-.03-3.27.91-5.08 5.55-.04 2.84-4-10.56-9.97-8.31 1.82-4.72-5.61-13.8-4.6-8.56-8.52 1.43-10.56-3.09-3.56-4.64-.59z"></path><path data-region="The-Whitsundays" class="active" fill="url(#map-0-artwork-fill-pattern)" d="m1129.57 334.66-.95 5.08V343l-5.66 1.07 1.37 9.38-3.76 3.99-2.3 4.32-4.2-2.18-4.95 7.53 1.28 12.34 1.23 4.08-1.23 5.38 14.95 5.71 7.91-1.5 4.74-8.21 1.01-3.28 4.82 1.81 4.92-4.19-3.5-6.39 6.02-3.4-1.76-4.84 8.56.46 7.27-5.5 4.65-2.77 2.05-5.44-3.49-7.04-6.87.56-1.64-4.37-7.36.61-7-4.76-7.68-5.68-2.88 3.97h-5.55z"></path><path data-region="Mackay-region" class="active" fill="url(#map-0-artwork-fill-pattern)" d="m1149.5 364.62 1.76 4.84-6.02 3.4 3.5 6.39-4.92 4.19-4.82-1.81-1.01 3.28-4.74 8.21-7.91 1.5-14.95-5.71-4.23 5.07-9.42-3.5v4.94l-4.33-6.24-7.34.71-.88 7.3 4.42 5.23-4.42 5.19.01.06 1.2 10.4 4.76 1.39 2.31.67 1.74.5 2.08 2.41-1.12 6.56 3.74 2.87 5.69 1.89 1.76 6.62 2.94 6.15 5.5-.14 5.82 1.15 1.07-3.71 5.83-2.49 5.82-7.41 4.12-1.73 6.4-6.22 5.96 3.95 6.17-1.18 1.98 2.32-2.89 2.83h8.03l.43 8.45-2.85 5.56 2.06 7.19 5.36-6.21 7.02-4.74 1.16-3.77 6.9-2.64 4.46-4.83 1.37-7.27 5.68-1.48 4.28-3.72 1.46-2.28-.4-.69-2.66-4.6-4.7-5.28-1.26-7.57.63-5.2-1.79-4.23-3.61-6.28-3.29-9.27-4.76-4.75-5.52-1.9-4.52-5.51-3.23-3.9-7.27 5.5-8.56-.46z"></path><path data-region="Southern-Great-Barrier-Reef" class="active" fill="url(#map-0-artwork-fill-pattern)" d="m1284 495.5-11.7-7.6-.2.3.1-.3-5.6-11.1-6.1-6.8-3.1 1.5-12.2-6.5-2.5-3.1-1.2-3-5.7.1-.2-7.5-1.8-3.9 2.4-2.2-3.7-4.9 1.1-14.6-.8-2.8-1.1-5.9-4.3-.6-.6 8.2-5.1-5.4-4.7-.5-7-10.7-5 1.6 1.9 10.2.9 3-7.8-4.9.4.7-1.4 2.2-4.3 3.8-5.7 1.4-1.3 7.3 4.4 6.1h5.6l1.3 8.7v4.4l5 3 3.7 6.8.9-2 5.5-1.5 9.5 4 1.1 2.3 3.3 4.9 4.8 3.6 2.1 3.5v6.5l-6.9 6.4-1.8 5.9v.1h-.1l-1.6 3.4-.5 11.8-3.9 5.3-1.1 3.3 2.8 3.9 6.1-.2 1.3 10.3 6 3h10.4l7.4-3.2 3.9-4.2 7.6 6.1-.3-7.2 5.7.7 1.5-3.9.1-.2 3.3-4.4 3.5-.5.2-2.7 6.1-4.1 5.2-3.7.4-2.5-6.2-11.7z"></path><path data-region="Fraser-Coast" class="active" fill="url(#map-0-artwork-fill-pattern)" d="m1284.75 513.39-6.09 4.08-.22 2.69-3.53.52-3.34 4.67-1.52 3.89 4.86 3.41 3.75.21 5.51-1.07 2.67.64 2.82 1.98 2.3.47 3.76-3.3 4.46-1.87 4.1 1.41 1.32.46-.06-3.27-3.79-5.81.25-1.52-.62-.8.75-6.92-1.9-2.9-2.34-.82-5.52.87-2.21-.87-.19.13v.01l-5.22 3.71zM1302.74,522.21l2.45-3.49,5.18-12.42,2.95-3.59-.59-3.04-1.47-5.25-1.77-.55-1.58,2.4.48,5.09-4.49,4.67-1.79,6.46-.1.87v7.36l.73,1.5Z"></path><path data-region="Sunshine-Coast" class="active" fill="url(#map-0-artwork-fill-pattern)" d="m1303.63 569.44 1.33-6.71-1.41-14.83 1.1-4.59 4.65-9.74-3.83-.9-1.31-1.55-4.11-1.41-4.45 1.87-3.77 3.3-2.3-.47-2.82-1.98-2.67-.64-5.51 1.07-3.75-.21-4.86-3.41-5.67-.76.29 7.25 7.7 9.96 3.69 4.8 8.36 3.48 7.06 8.25 4.26 2.96 2.61 2.94 5.41 1.32"></path><path data-region="Gold-Coast" class="active" fill="url(#map-0-artwork-fill-pattern)" d="m1311.42 596.01-.3-3.2h-3.03l-1.48.59-2.02.66-1.16 1.44v1.36l.6 1.23.05 2.24-.01.69.78 1.33-.64 2.34-.04 1.93.68 1.45.58 1.45.12 1.12 9.93-.91-2.06-4.29-2-9.43z"></path><path data-region="Southern-Queensland-Country" class="inactive" fill="#00A5A4" d="m1204 455.7-5-3v-4.3l-1.3-8.8h-5.6l-4.4-6.1-4.5 4.8-6.9 2.7-1.2 3.8-7 4.7-5.3 6.2-2.1-7.2 2.8-5.5-.4-8.5h-8l2.9-2.8-2-2.3-6.2 1.1-5.9-3.9-6.4 6.2-4.2 1.7-5.8 7.4-5.8 2.5-1.1 3.7-1.6 5.8 1 4.5.2 4.7-1.7 4.5-8.3 10.2-9 5.1 2.4 7.1 7 2 2.5 4.2 4.5 3.2 8.5-1.3h.1l.5-.2 12.3-4.1 19.5 18.2 6.9-.3 4.8 5.5 2-.7 2.3-.7-3.8-15.1 3.8-3.8 4.8 10.7 5.6-2.5 4.9-3.8.8-.5 1.5-.8 1.1-1.9-.8-2.1 4.2-2.2 1.6-2.5 2.7-4.2-3.5-11.7 2.1.1 5.8-6.6 2.4-6.4-3.7-6.8zM1264.5 535.7l7.7 10 3.7 4.8.1.1-.1.2-1.1 5.2.8 5.6 1.6 9.4 2 8.2 7.7 6-4.8 10.5 1 4.1 1.1 4.6v2.2l.8 3 .6 2.2-12.5 3.5-2 2.5v9.1l-2.5 3.7-5 2.1-3.4-2.8-7.6 7.9-3.3 1.5-2.6-8.7-5.4-.4-5.6-7-7.2-.8-4.8.2-4.8-2.7-2.9-1.1-3.9-.4-1.4.2-2.1 1.2-3.3 1.8-4.4-.5-3.5-.2-5.3-1.7-4.4 3.6-5.7 3.2-2.9 2-2.2 1.9v2.4h-3.3l-.6-12.7 3-9h11.7l1.8-6.6.9-6.2 1.2-7.7.8-12.2 3.9-6.1 1.6-2.5-.7-1.3-3-6 3.1-2 .8-9.6 3.9-4.6-6.1-.8-3-.2-3.1 1.3-3.7-.9-7.2-.4-.3-1.9 1.9-4.4-2.3-1.4-1.1-.5-.2-2.5 2.6-1.4 6.6-1.6 7.8-1.1 5.8-.2 2.3.4 1.9.4 2.7-.6 3.7-.8 4.7.4 2.7-5.1 4.1-.6 6.1-.2 1.3 10.3 6 3h10.4l7.4-3.2 3.9-4.2 7.6 6.1z"></path><path data-region="Brisbane" class="inactive" fill="#00A5A4" d="m1303.6 569.4-5.4-1.3-2.6-3-4.3-2.9-7-8.3-8.4-3.2-1.2 5.3.8 5.6 1.7 9.3 1.9 8.3 7.8 5.9-4.8 10.6 2.9 13.9 1.1-.4 1.2 1.7 9.4-.6 4.6 2.8 4.2-2.5-.1-1.1-.6-1.5-.7-1.4.1-2 .6-2.3-.8-1.4V598l-.6-1.2v-1.4l1.1-1.4 2.1-.7 1.4-.6h3.1l.2-4.9-5-8.6-2.7-9.8zM1308 565.6l-.7 4 2.7 3.2 2-2.1-.7-2.9-3.3-2.2zM1317.4 575.6l-.9-11-3.5 2.4-.5 5.4.2 3.9 3.3 1.3 1.4-2zM1318.1 579.3l-2.6 1.2-.5 3-1.2 3.4 1.3 3.1 2.5-4.2v-2.5l1.6-.5-1.1-3.5z"></path><path data-region="Great-Barrier-Reef" class="inactive" fill="#00A5A4" d="m1313.93 478 1.07 1.22-.32 1.9-.05 5.07-2.02 1.81-.06-3.46-1.56-1.17.25-2.69 2.67-2.68Zm-12.56 2.74c1.06-.85 1.88 1.03 2.95 1.78 1.08.75.59 1.78 0 2.26-.59.48-.88.74-1.47 1.52-.59.77-1.86 1-2.94 1.47s-2.25-2.99-2.25-2.99 1.18-1.51 1.57-2.07 1.08-1.12 2.14-1.97m-24.62-2.74 1.25 1.58-.66 1.42-2.27-.5-.07-2.08 1.75-.43Zm33.92-7 1.17.35.17 1.55-2.41 2.1-1.59-1.38.73-1.4 1.94-1.22Zm-25.56-.32c.25.45.28 1.48.16 1.71-.12.24-.85 1.46-1.53 1.41-.69-.05-1.28-.14-1.28-.14s-.72.03-.84-.25-.75-.88 0-1.25c.75-.36 1.53-.72 1.69-.96.16-.24.94-.77.94-.77s.63-.21.88.23m30.74-26.66 1.33 2.77 2.85 1.47-.77 2.97.52 1.17 1.51 1.66 1.69 2.22-1.86 2.08.62 2.2-.77.54-3.55-3.2-.39 1.48-1 1.19-2.37-1.4-.35 1.83-2.74.31-.45.8.7 3 2.64 1.72 2.07-1.18 1.83.12 1.37 2.59.54 3.71-.91.95-1.93-.52.44-2.18-1.51-1.54-2.29.67-3.14-1.39-1.61-3.21-1.34-3.52.83-3.03.11-3.08 1.41-1.93 1.94.63 2.46 1.68 1.51-.89-.59-3.01 2.07-1.7-2.09-2.12-.72-1.32.23-1.93 1.71-.62Zm-64.04 14.28 1.89.6s1.26 2.09 1.58 3.58c.31 1.49 0 .6 0 2.09s-1.26.6-1.26.6-.95-1.19-1.89-3.28-.31-.3-1.26-1.79c-.88-1.39-.13-1.49-.01-1.49h.01l.95-.3Zm16.04-8.35c.31-.23.82.22.82.22s1.7.4 2.04.49 1.77.43 2.3.6c.53.16.58.64.7.85.12.21-.22.27-.51.39s-.41.37-.97.55c-.56.18-.92.09-1.52 0s-1.82-.46-2.99-.94-.87-.43-1.02-.69c-.15-.25 0-.25 0-.8s.36-.34.58-.34.56-.33.56-.33m37.56-13.93 3.21 1.35 3.67.14.19.8-1.5 1.5-2.15.74 2.2 1.37-.17 2.17.76 1.62.32 1.17.04 1.99 1.01.58-.35 2.56-2.34-.06-2.21-1.36 1.32-1.71-1.53-1.57.03-1.46-1.87-1.17 1.26-2.14-1.74-.8-.49-1.86-1.09-2.3 1.42-1.55Zm-51.1 3.03c.64-.73 1.51-.23 2.16.82s-.65.79-1.21 1.31c-.56.52.09 1.06.56 1.58.46.52 2.7 1.32 4.09 1.5 1.4.18.28.97 0 1.35s-1.12.23-1.68.49c-.56.26.19 1.4-.51 1.32-.7-.08-1.26-1.32-1.63-1.82-.37-.49-.74 1.02-1.02 1.82s-1.12.61-2.23.62c-1.12.01-1.77-.18-2.52-.5s-.84.4-2.05 1.77c-1.21 1.36-.93-.84-1.75-1.27-.82-.43-.2-1.24-.02-1.77.19-.53-1.02-.88-1.02-.88l1.02-.62c1.02-.62.28-1.41.37-1.65.09-.24 1.58.33 3.07.59 1.49.26.75-1.23 1.31-3.39.56-2.17.65-.29 1.4 0 .74.29 1.02-.56 1.66-1.29m37.01-40.01 1.87 1.54-1.16 4.63 1.12 2.71 2.24.28 1.23 1.23.28 4.25 3.05 2.28 2.76 1.17.39-.89 2.58 3.56-.27.42 3.4 2.12.57 3.37 1.7 3.63.91 4.31-.88 2.41-1.36-1.34-.57-3.37-2.28.58-2.44-3.56 2.46-2.67-.24-.29-3.09 1.43-5.72 1.22-3.73-1.72.21-5.32-3.01-1.77-.93-3.31-1.81-2.9-4.49.62-3.29-3.34-1.38-1.69-3.44-2.8 2.21-2.26 1.72-1.52 3.38 1.92-.12 3.9 4.62 1.49 2.68 2.32 2.57.52.32-.51-1.66-3.14-4.87-1.99-.87-1.38 3.51-.7-.48-2.4 2.3-3.03Zm-44.28 17.4 1.89.3.94.59-.94 1.18c-.94 1.19-1.26 0-1.26 0l-1.26-.89.63-1.18Zm60.76-4.4 1.19 2.84-2.83.16-.17-2.59 1.81-.41Zm-97.89-7.65 1.89.89s.31 3.56.31 4.74.31.89 0 2.37-.31.59-1.57.89c-1.26.3-.94-.59-.94-.59s-.63-.89-1.57-1.18c-.95-.3-.31-.89.31-2.37.63-1.48.31 0 1.26 0s.94-.89.94-.89l-.63-3.85Zm123.21-.35.87 2.3-1.18 2.05-.35 3.57-1.6 1.09-2.78-3.36-3.09-2.35.25-2.18 4.94-.91 2.95-.19Zm-31-24 3.42 1.11.24 3.79 1.46 1.89-.93 3.86-1.84 2.76.37 3.28-2.11 1.12-.72 1.86 1.46 1.9 1.51 2.72 1.69 3.04 1.32 2.4-2.04 2.27-1.92-1.21-1.56-3.54-3.52-2.76.88-2.04.32-2.99-1.59-1.23-.17-2.8 2.61-1.15-.25-4.12-2.15-2.18-1.1-1.59-2.39-.68-.11-1.81 4.32-.59 1.91 1.04-.15-2.47 1.06-1.88Zm-85.8 26-.33 3-.33-1.87.65-1.13Zm59.14-23 1.72.25 2.53 5.43 1.93.96 2.18-.68 2.51-3.77 1.72.25.94 4.45-2.45 1.79-2.17.86-2.05 2.84-2.46-1.28-.86-3.02-2.45-1.11-2-2.04-3.83 4.58-2.35.7-1.2 2.79-5.35-1.1-.82-2.48 2.18-.68 2.08-2.48 3.7-3.85 1.27-1.71 5.25-.7Zm-48.14 8-.33 3-.33-1.88.65-1.12Zm-6.29-2.45 1.89.3.94.59-.94 1.19c-.94 1.18-1.26 0-1.26 0l-1.26-.89.63-1.18Zm62.61-5.55 1.34.8-.62 2.2-2.38-1.26.21-1.63 1.45-.11Zm-64.32-2-.33 3-.33-1.88.65-1.12Zm32.34-24 2.17 1.26 4.8 1.62.94 3.95 3.7.82 1.88 2.32 3.25 1.89 6.51 1.17 2.97 3.13 4.06.97 3.71.99-.45 4.03 1.8.93-4.87 2.91-2.22-2.13 1.23-2.69-.12-1.91-4.94-1.09-2.54-1.76-2.05.65-1.19-2.36-2.46-.37-2.87-1.39-2.99-.51.04-2.27-2.94.35-2.65-.71-.34-2.77-2.03-1.96-2.66-.88-1.41-3.05 1.67-1.15Zm-5.34 23-.33 3-.33-1.88.65-1.12Zm-7.34-.29 1.89.3.94.6-.94 1.19c-.91 1.15-1.23.08-1.26 0s-1.26-.9-1.26-.9l.63-1.19Zm-14.26-7.71 2.05 2.25 3.08.52 2.17-1.62 2.31 1.12.33 3.11 2.2 2.05.14 2.57-5.28-2.58-1.03-1.22-2.52.91-3.19.41-3.61-1.4-.36-3.66 1.66-2.14 2.07-.33Zm-12.5 6.87 1.89.3.94.59-.94 1.18c-.94 1.19-1.26 0-1.26 0l-1.26-.89.63-1.19Zm8.1-3.87-.33 3-.33-1.87.65-1.13Zm-18.51-7.92-.32 1.85-1.31-.31v-.92l1.63-.62Zm28.85-9.08.33 3.3-3.73 4.58-1.43.12-3.57-3.51-4.01-1.34-.27-1.88 5.18-.42 4.15.61 3.34-1.46Zm-38.16-.07 1.89.3.94.59-.94 1.19c-.94 1.18-1.26 0-1.26 0l-1.26-.89.63-1.18ZM1232.3 341l1.8 1.38 2.23 3.52 1.87-.12 1.23 2.42 2.19 2.69 2.38.51-.19 2.18-1.54.43-1.91-.54-1.82-1.71-1.28-.42-2.63-2.33-1.38-2.24.36-1.86-2.41-1.17-3.21-1.45 4.3-1.28Zm-34.83 11.35.14.5.38-.07v.29l-.45.06-.21.52-1.02-.11-.31-.45.45-.7 1.01-.03Zm1.75-9.33 1.26 1.78s0 .3.63 1.78 1.57.89 1.57.89l-.31.89.63 2.07-1.57.59-.94-.59-1.57-.3-.31-1.18v-1.48l-.94-1.48.94-2.07.63-.89Zm-15.8 2.98.59.24.04.4-.09.34 1.29.95.64.45.12.38-.54.24-1.02-.7-.48-.56-.32-.75.09-.37-.72-.27v-.27l.42-.08Zm29.53-.02 1.89.3.94.59-.94 1.19c-.91 1.15-1.23.09-1.26 0s-1.26-.9-1.26-.9l.63-1.19Zm-23.34.03.05.08h.15l.16.38.35.02.27-.25.36.19.03.86-.44.14.05.05.08.52-.6-.23v.16l-.55-.39.08-.78-.04-.08-.28-.05-.26-.48.43-.04.16-.1Zm-7.32.13.28.29.07.63-.75.81-.32-.67v-.36l-.23-.4.47-.2.17.17.3-.26Zm6.04-9.14.3.47-.02.62.67-.08.19.3-.32.97.75.05.29-.38.41.4-.07.33.54 1.5.84-.93-.12 1.27.97-1.36-.03 2.91.62-1.58 1.4 1.29 1.27-.04-.55 1.22-1.29.27.06.6-2.32-.37-.49.74.53.34-1.09.45-.48-.89-.76.06.79-2.01-1.77 2.24-.58-.48-.83.12-.22-.26.97-1.51.42-.1.94-1.7-.69.12-.1-.71-.61 1.19-.38-.99.41-1.92-.65-2.09 1.02-.09Zm-7.45 7.66.45.6-.67.07.22-.67Zm44.27-2.73 1.89.3.94.59-.94 1.19c-.91 1.15-1.23.09-1.26 0s-1.26-.9-1.26-.9l.63-1.19Zm-44.12-.93 1.97.44-.64 2.33-.89.11.38.59-.66.07-.53-.55h-.05l-.04-.09-.43-.45.29.03-.43-1.22 1.03-1.27Zm2.7-8 .48.48-.38 1.73.41-.15.1 1.24-.61-.57-.35.26 1.6 3.7-.71 1.2-.3-.61.03-.5-.43-1.48-.05 2.58-.64-.14-.15-2.66-.16 2.81-.37.12-.4-.87.16-.67-.71-1.82.12-.53-.41-1.08.71-.52-.15-.83.69-.78.09.72.33.61.02-.88 1.04-1.35Zm33.56-4 2.19 1.56.52 2.22 2.92.95 2.08 2.88-2.14 2.39-1.98-1.2-2.01-1.76-2.67-3.22-4.2-.12.56-3.23 4.73-.47Zm-21.29 7.38 2.25.31.75.92h-2.5l-.5-1.23Zm-15.57-2.89 1.05.22.09.81-.99-.24-.16-.78Zm-18.6-3.48c0-.89 1.26 0 2.2 0l-.63.89s-1.57 0-1.57-.89m18.31-10.01 3.57 1.55 3.69.66 1.93.23 3.37-1.8 3.69.65 1.01 2.41 1.97.94 1.75-2.76 4.48 2.2 4.22.8.19 3.17-3.6.75-4.01-.28-3.91 1.48-2.66-.89-2.77-2.66-1.7-2.19-2.08.13-1.15 3.96-2.17 1.37-1.49-1.68-.73-3.49-4.38-.61-1.34-2.04 2.14-1.9Zm-10.11 4 1.96.44-.64 2.33-1.75.23-.61-1.73 1.04-1.27Zm-19.47-3.2 1.89.3.94.59-.94 1.19c-.94 1.18-1.26 0-1.26 0l-1.26-.89.63-1.18Zm8.39-.4 1.89.3.94.59-.94 1.18c-.94 1.18-1.26 0-1.26 0l-1.26-.89.63-1.18Zm-15.95-4.02 2.25.31.75.92h-2.5l-.5-1.23Zm11.53-12.38 2.12 1.31-.06 1.99 2.49 2.01.99 2.47 1.93.96-.44 4.19-3.91.07-.42-1.42.41-1.83-1.06-3.73-3.73-2.83-1.58-.8-.26-1.61 3.52-.77Zm16.96 9.34c0-.89 1.26 0 2.2 0l-.63.89s-1.57 0-1.57-.89m8.51-.96 2.25.31.75.92h-2.5l-.5-1.23Zm-15.08-9.38 2.42 1.82 2.32 3.1 3.64-.06 2.7.9-.02 2.71-4.15-.27-2.55 1.8-1.34-3.34-1.07-1.37-3.87-1.18.17-2.9 1.75-1.2Zm-45.77 5.71 1.89.3.95.6-.94 1.19c-.94 1.19-1.26 0-1.26 0l-1.26-.89.63-1.19Zm62.84-3.3c0-.89 1.26 0 2.2 0l-.63.89s-1.57 0-1.57-.89m-23.2-4.57 1.89 1.78 1.57.6v1.19l-1.26 1.49h-1.57c-.86 0-.94-1.72-.94-2.03v-.05l-.63-1.79.94-1.19Zm-39.1-15.84 1.92.95.74 1.33.57 2.88 1.49-.33-.18-.49.94-1.19 1.89 1.78 1.57.59v1.05l1.4-.51.07-2.91.7-1.89 2.7.02 2.9 1.7 3.33 1.12 2.35 3.11 1.89 3.13-.79 3.27-2.13 1.4.43 2.08 2.29.93-.8 1.82-1.47.16-3.06-2.58-1.48-2.59 1.1-1.51 2.44-.94.15-3.08-2.3-2.3-1.03-.11-2.09 1.97-1.91-.79-.28 2.68-1.76.09-1.62-.56.61 4.65-1 .3-1.61-1.77-3.14.25-.93-2.61-.52-2.15-.73-1.09-3.23-1.12.53-3.1-1.67-2.65 1.7-.98Zm-9.36 11.17 1.89 1.79 1.58.6v1.19l-1.26 1.49h-1.58c-.94 0-.94-2.09-.94-2.09l-.63-1.79.94-1.19Zm37.93-.17 1.47.33.27 2.13-2.87.54-1.13-1.12.32-1.14 1.94-.74Zm10.74-1.62 2.25.31.75.92h-2.5l-.5-1.23Zm8.18-1.97 1.89.3.94.6-.94 1.19c-.91 1.15-1.24.08-1.26 0s-1.26-.9-1.26-.9l.63-1.19Zm-67.16-8.95 1.89 1.79 1.58.6v1.2l-1.26 1.49h-1.58c-.94 0-.94-2.09-.94-2.09l-.63-1.79.94-1.19Zm50.79-.47 1.89 1.79 1.57.59v1.19l-1.26 1.49h-1.57c-.94 0-.94-2.08-.94-2.08l-.63-1.78.94-1.19ZM1116.68 272l1.91.11 1.47 1.9 1.35 1.32-.06 1.4 2.33.53.19 1.68 1.24.81.67 1.73 2 .25.21 1.97-.94 1.3-2.3-1.27-.06-.88-1.66-1.15-.85-.83-1.04-1.33-1.9-1.14-.21-1.97-1.54.75-1.91-.04-.59-.55 1.45-2.06.23-2.51Zm21.53 9.3 1.89.3.94.59-.94 1.19c-.91 1.15-1.23.09-1.26 0s-1.26-.9-1.26-.9l.63-1.19Zm21.79-.92 2.25.31.75.92h-2.5l-.5-1.23Zm-9-3 2.25.31.75.92h-2.5l-.5-1.23Zm22.42-2.38 1.58 1.07-1.03 1.93-1.52-.21-.45-1.71 1.42-1.08Zm-34.37-.84 1.89.3.94.59-.94 1.19c-.91 1.15-1.23.08-1.26 0s-1.26-.9-1.26-.9l.63-1.19Zm-37.16.49c0-.89 1.26 0 2.2 0l-.63.89s-1.57 0-1.57-.89m2.46-36.65.63 1.46-1.28 4.9 1.63 3.07 3.77.28.59 3.62-1.32 4.4-.52 3.02 1.9 1.72-1.59 2.92.7 2.46 3.73-.38 1.51 3.91-1.87 1.44 2.48 2.36.3 1.81-2.55-.69-3.07-3.15-2.01-3.38-2.48-2.35.28-3.85-.96-3.77.71-2.87-.06-3.66-3.39-2.64-.29-1.65 1.13-1.89-1.59-2.41-4.58-1.73-.15-2.32 3.93-.06 1.72 1.73 2.71-2.32Zm53.28 36.06c0-.89 1.26 0 2.2 0l-.63.89s-1.57 0-1.57-.89m-56.32-4.06 3.69 1.43-1.85.57-2.15-1.33.31-.67Zm74.92-8 2.77 2.93-.96 2.98-1.29.3-1.8-2.17-1.41 1.55-1.73 2.41-1.31-.12-1.51-3.85 3.69-.67 3.54-3.37Zm-76.23 2.38 2.25.31.75.92h-2.5l-.5-1.23Zm62.92-13.38 2.96 5.58 3.06 1.27 1.06 3.89-1.83 2.26-6.24-1.27-.65-3.74 1.88-1.54-2.05-3.84-.11-1.61 1.92-1Zm-50.19 9 1.09.94.18 2.49-1.42.57-1.45-1.92-.12-1.74 1.73-.34Zm58.34-2 1.93 1.62-.89 1.38-1.88-.82-.23-1.32 1.07-.86Zm-45.89-.19 1.89.3.94.59-.94 1.18c-.94 1.19-1.26 0-1.26 0l-1.26-.89.63-1.18Zm48.33-1.81 1.49 1.24-.66 1.76-2.06-.42-.29-1.84 1.51-.74Zm-55.51 1.38 2.25.31.75.92h-2.5l-.5-1.23Zm13.18.01c0-.89 1.26 0 2.2 0l-.63.89s-1.57 0-1.57-.89m-19.64-6.12 1.89.3.94.59-.94 1.19c-.94 1.18-1.26 0-1.26 0l-1.26-.89.63-1.18Zm20.56-3.06 1.89 1.78 1.57.59v1.19l-1.26 1.48h-1.57c-.94 0-.94-2.07-.94-2.07l-.63-1.78.94-1.18Zm65.38-7.21 2.37 1.05.15 1.8-3.32.15-.68-1.77 1.48-1.23ZM1094 240l.87 3-1.74-.49.87-2.51Zm55.1-5 1.89.9-1.04 2.1-2.21-.54-.75-1.31 2.11-1.15Zm-61.07.47c0-.89 1.26 0 2.2 0l-.63.89s-1.57 0-1.57-.89m-4.98-25.47 1.51.85.26 3.07 1.33.51 1.7-2.85 2.06.47-.8 3.05-2.84 1.47.3 2.29 2.64 2.06 2.12-2.62 1.2 1.04-.17 4.04 1.73 3.23-1.82 2.17.46 2.37 1 1.74 2.28 1.48-.55 1.66-1.86-1.05-.22.83-1.76.23-.61-1.73.63-.78-1.53-2.71-1.55-5.72-4.39-2.88-1.09-4.72-3.07-2.54 1.91-2.18 1.14-2.73Zm-.05 24.86c0-.9 1.26 0 2.2 0l-.63.89s-1.57 0-1.57-.89m-.15-1.42c0-.89 1.26 0 2.2 0l-.63.89s-1.57 0-1.57-.89m21.03-.25c0-.89 1.26 0 2.2 0l-.63.89s-1.57 0-1.57-.89m57.82-7.19 3.3 1.08-.49.98-2.86-.28.67 1.2-1.43 1.02-2.2-1.41-2.46-.03-1.24-1.31.85-1.13 5.85-.12Zm-84.52-25 1.79.65 1.48 2.36 2.16-.05.34-2.64 2.01.13.75 2.74 1.3 2.2-.97 4.62-2.08-1.39-3.34-.04-4.03-1.86-.58-2.75 1.18-3.96Zm5.62-5 2.19.89-1.37 2.11-1.63-1.37.81-1.63Zm43.8-3 1.4 2.22-1.86.78-1.14-.59.38-1.67 1.23-.74Zm-43.13-19 1.16 6.34-.5 2.29.87 2.19-.54 2.77.48 3.98-.78 3.43-1.53-.21.04-5.71-1.09-1.13-.33-1.1 1.56-1.88-1.59-.21-.21-1.35 2.01-1.19-.81-7.65 1.28-.57Zm-3.44 5 1.97.44-.64 2.33-1.76.23-.61-1.73 1.03-1.27Zm-4.68-20 4.97 2.81 2.25 3.87.43 6.32-1.85-.8-.24-3.61-2.08-4.24-4.18-2.85-.08-.11-1.49.47-1.09-.79 1.37-.91.67.45 1.31-.6Zm-1.82 3 1.47 1.1-1.02.9-1.98-1.3 1.53-.7Zm-2.8-2.13s3.31 1.26.64 1.5c0 0-.64 0-1.59-.6s.48-.6.95-.9M1044.28 144l5.43 2.93 2.25 2.2 5.17 1.92 3.94 1.58 3 1.53 3.37 2.07.56 2.81-2.72.97-.66-1.62-1.85-1.03-2.51-.22-.83-1.3-3.59.38-.03-2.36-3.87.08-.38-2.66-2.67-.05-2.46-1.16-.59-1.47-3.83-1.03 2.28-3.55Zm-6.4 0 2.12 1.79-1.7 1.21-2.3-1.86 1.88-1.14ZM1022 124l3 .43-.14 1.85 2.49 1.21 1.73 5.15 1.82 1.38.56 2.72 3.55.53.25 3.59 1.74 1.47-.69 2.26-3.77.42-.96-5.7-2.64-1.94-2.25-1.02 1.39-2.37-.95-1.59-2.94-.65-1.32-1.83-.88-1.84 1.4-1.26-1.25-.18-.15-2.63Zm20.8 18.96s.97.93.32 1.35c-1.36.88-1.43-.9-1.43-.9l1.11-.45ZM1019.25 106l1.8 5.47 2.85 3.82.1 6.71-4.06-1.42.1-5.17-3.82-2.61-.23-5.37 3.25-1.43Zm1.38-22 1.67 3.32 2.7.07-1.41 1.53-.56 4.47-4.09 1.88-.34 8.74-2.76-1.22-.84-10.26 4.38-2.05-2.25-4.78 3.5-1.69Zm1.33-19 2.31.07.71 3.13-2.77 1.94-.97 8.61 3.75 3.01-1.69 3.23-6.34-4.99-.96-4.62 1.42-1.3-.03-4.33 4.58-4.76Zm3.04 9 2.18.72 1.82.3-.14 2.91-3.46.07-.4-4Zm-3.9-15 .9 2.28-2.35.72-.65-2.14 2.1-.86Zm5.13 0 1.77 1.11-1.08 1.89-1.92-1.35 1.23-1.65Zm2.16-11 .33 3.86 1.27 2.92-1.37 2.92-2.17-1.41-1.99 1.71-3.47-3.1 4.36-2.45-.03-2.38 3.07-2.07Zm-8.73-21 2.78 2.08.81 1.77-1.12 2.2 2.69.74.17 2.46-2.65 1.64 1.48 3.17-2.51 1.94-3-.14-.46-5.14-.59-1.92 1.82-1.99-2.09-2.03.11-3.51 2.56-1.27Zm-55.95 3.77s.84.7.84 1 .21.6.21.99.53 1.09.53 1.09.42.4 1.05.2c.63-.2.42 0 .53-.4l.74-1.59c.21-.4.42 0 .84.2s1.05 1.09 1.37 1.59c.32.5-.11.9-.53 1.19-.42.3-.74-.2-1.79.2s-.11 0-.74 1.09-.21.3-1.05 1.19c-.84.89-.95.89-1.37 1.19-.42.3-1.69.1-3.06-.4s-.1-.3-.63-1.39c-.53-1.09-.32-.5-.74-1.89s0-.5.21-.9.42-.3.95-.5.42-.3.84-.9c.42-.6.74-.7.74-.7s.74-.69 1.05-1.29m2.54-2.55s1.16-.1 1.79.1l.95.5s-.53.6-1.16.9c-.63.3-.74.5-1.48 0s-.21-.6-.21-.6l.11-.89ZM1024.5 14l1.57.26.93 3.51-.14 3.46-2.86.77.6-4.68-.1-3.32Zm7.61-14 2.47 1.78-.25 4.43 2.56 1.62.1 1.86-4.83.4-.39 3.74-2.41 1.17-2.38-1.86.92-3.14 1.71-1.22-1.42-2.51 1.97-3.72 1.93-2.55Zm-69.66 9c.74.4 1.05.69 1.58 1.19.53.49 0 .69-.53 2.19-.53 1.49-.21.6-.63 1.29-.42.7-1.16.89-1.16.89s-.84-1.39-.95-1.69c-.1-.3-.32-1.29-.74-2.19-.42-.89-.42-.4-1.05-1.39-.63-.99.32-.3.74-.6s.95-.3 1.47-.4c.53-.1.53.3 1.27.7m6.53 2 .11 1.09-.53.99s-.42.7-1.05.9-.32 0-.84-.2c-.53-.2-.32-.4-.42-1.1-.11-.7.21-.5.42-.8.21-.3.63-.2.63-.2l.74-.5.95-.2Z"></path><path data-region="Tropical-North-Queensland" class="inactive" fill="#00A5A4" d="m833.2 314.84 2.86-1.9 2.5.85 3.19 5.07 5.7-3.8 3.27 3.8v-6.08l2.98.16 10.18 1.18 6.18 3.87-1.09-4.78 10.1-.43-1.88 10.08 7.26.22 3.12.72-1.04-4.84-2.06-2.9-2.05-3.88h5.15l13.38-1.93 7.21 3.87 9.27 1.94 8.24.96h7.2l7.21 1.94h8.24l5.15 3.88h6.07l8.34-.97 4.12 2.9 1.03 2.91 5.06 1.9 6.89-.93.18.03.23-.03 6.99.93 5.95-.93.56-.06 8.12-3.82h5.15l5.15 3.88 6.18.96 6.45-1.73.22-.19 12.24-14.11-.51-11.08 4.62-5.79-.37-.31-5.26-1.78.33-2.42-.36-.3.44-.26.99-7.22 8.09 5.43 7.63 2.38.08-.07-.95-5.01 10.62 5.52 4.55-4.68 8.38-.81 3.24 1.41 2.17.12 4.64.62 3.05 3.58-6.98-13.57 1.42-11.59-1.05-7.21-3.17-6.45-1.9-12.69-4.43-.11-4.54-5.68-7.24-10.39 3.97-6.12-2.8-8.97-4.9-11.92.44-8.47 1.34-10.23-3.52-5.02-5.6-.44-9.56-6.56-3.38-5.8-4.55-11.14-6.96 4.6-4.83 1.32-4.65 5.36-7.35.52-2.91-8.86-3.73-9.18.08-10.03-1.17-10.98-.1-10.73-2.85-2.78-1.79-4.63-2.09-4.76-4.47-6.41-2.17-4.18 2.17-10.33-5.55-2.53-7.13-5.14.58-7.11-2.46-11.72-2.39-6.86-1.98-7.34-7.48-1.86-2.87 3.58.95-.96 1.81 3.68-2.77-.33-.44-1.82-2.85 3.56-2.98 7.94-.12 8.09-3.7 10.6-1.05 6.35-1.86 3.28-.61 4.26-4.52 2.84-.71 6.13-1.55 2.61 7.21 3.02-1.71 4.77-.33 2.55-5.17 1.27-1.45 4.88.91 14.58-.68 2.24-1.19 3.22-2.68 9.73 4.1 6.23-2.12 6.02-1.16 12.58 3.28 7.34-.25 8.84-3.27 8.64-2.59 8.85.41 11.52-4.4 12.32-1.93 6.56-8.51 12.36-2.1 5.35-1.16 9.85-6.65 2.67-10.49 3.83-8.75.35-8.05-5.05-5.55-1.96-7.04-2.91-5.55-3.37-2.53-7.26-7.5-7.23-7.21-2.17h-7.93l-6.05-3.04-6.95-6.27V313.19l.34.17v-.17l3.07 1.65z"></path><path data-region="Outback-Queensland" class="inactive" fill="#00A5A4" d="M1176 610.64h11.65l1.88-6.63.9-6.23 1.19-7.64.78-12.2 3.86-6.09.98-3.82-3.07-5.98 3.11-2.03.78-9.6 3.93-4.62-6.06-.75-3.06-.24-3.1 1.3-3.72-.94-7.17-.36-.28-1.88 1.89-4.48-2.31-1.33-1.08-.55-.17-2.43 2.53-1.48 6.63-1.6 7.84-1.09 5.74-.15 2.32.4 4.57-.22 3.74-.8 4.72.4 2.69-5.1 4.08-.63-2.83-3.83 1.17-3.35 3.91-5.26.12-4.25.35-7.59 1.59-3.38.12-.02.02-.1 1.73-5.89 6.89-6.35v-6.57l-2.05-3.47-4.84-3.63-3.31-4.87-1.06-2.32-9.46-3.94-5.54 1.5-3.34 8.38-5.77 6.53-2.06-.08 3.43 11.77-2.68 4.12-1.63 2.51-4.16 2.27.8 2.03-1.05 1.92-.95.68-.61.43-5.63 4.03-5.68 2.46-4.81-10.71-3.72 3.83 3.72 15.05-2.18.77-.06-.04-1.98.65-4.84-5.42-6.91.26-19.49-18.21-12.32 4.13-.22.19-.23-.04-.1.04-8.51 1.34-4.54-3.28-2.49-4.18-7.01-1.96-2.43-7.12 9.06-5.09 8.26-10.2 1.76-4.49-.26-4.73-1-4.48 1.65-5.77-5.82-1.15-5.5.14-2.94-6.15-1.76-6.62-5.69-1.89-3.74-2.87 1.12-6.56-2.08-2.41-1.74-.5-2.04.5-.27-1.17-4.76-1.39-1.2-10.4-2.01.38-.1-.05-.24.05-8.69-2.91-.8-5.81-1.51-4.71-4.09-2.79-1.38-4.12-4.13-2.9-4.11-9.69-1.03-4.83 1.03-4.85.95-4.1.05-.34-5.61-4.19-2.6-3.96-2.06-2.9-1.03-4.84-5.15-2.91-2.06-4.84-6.81.85.63-6.66-3.02-3.8-.49.13-6.45 1.73-6.18-.96-5.15-3.88h-5.15l-8.12 3.82-.11.06-6.18.96-.22-.03-6.99-.93-.23.03-6.98.93-.09-.03-5.06-1.9-1.03-2.91-4.12-2.9-8.24.97h-6.17l-5.15-3.88h-8.24l-7.21-1.94h-7.2l-8.24-.96-9.27-1.94-7.21-3.87-13.38 1.93h-5.15l2.05 3.88 2.06 2.9 1.04 4.84-3.12-.72-7.26-.22 1.88-10.08-10.1.43 1.09 4.78-6.18-3.87-10.18-1.18-2.98-.16v6.08l-3.27-3.8-5.7 3.8-3.19-5.07-2.5-.85-2.49 2.1-.37-.2-3.07-1.65v.17l.26 222.65h95.37v96.26h247.84l-.59-12.66 2.99-8.97z"></path><path data-region="Townsville-North-Queensland" class="inactive" fill="#00A5A4" d="m1085.66 288.69-2.17-.09-3.31-1.39-8.32.87-4.36 4.79-.14-.07-10.67-5.45.99 5.01.02.1-.1-.03-7.64-2.33-8.15-5.37-.93 7.24-.07.55-.31 2.43 5.28 1.74.62.21-4.59 5.83.62 11.11-12.16 14.24.06.08 3.06 3.77-.57 6.67 6.8-.9 2.1 4.82 5.17 2.87 1.08 4.83 2.08 2.89 2.64 3.94 5.64 4.14.03.02-.07.32-.93 4.11-.98 4.86 1.07 4.82 4.2 9.66 4.14 2.87 1.42 4.11 4.12 2.76 1.55 4.7.85 5.8 8.71 2.84.24-.05 2.1-.41 4.37-5.22-4.46-5.19.81-7.31 7.34-.76 4.38 6.2-.04-4.93 9.45 3.42 4.19-5.1 1.18-5.38-1.26-4.08-1.39-12.33 4.89-7.57 4.21 2.16 2.27-4.34 3.72-4.02-1.45-9.37 5.65-1.11-.03-3.27.91-5.08 5.55-.04 2.84-4-10.56-9.97-8.31 1.82-4.72-5.61-13.8-4.6-8.56-8.52 1.43-10.56-3.09-3.56-4.64-.59z"></path><path data-region="The-Whitsundays" class="inactive" fill="#00A5A4" d="m1129.57 334.66-.95 5.08V343l-5.66 1.07 1.37 9.38-3.76 3.99-2.3 4.32-4.2-2.18-4.95 7.53 1.28 12.34 1.23 4.08-1.23 5.38 14.95 5.71 7.91-1.5 4.74-8.21 1.01-3.28 4.82 1.81 4.92-4.19-3.5-6.39 6.02-3.4-1.76-4.84 8.56.46 7.27-5.5 4.65-2.77 2.05-5.44-3.49-7.04-6.87.56-1.64-4.37-7.36.61-7-4.76-7.68-5.68-2.88 3.97h-5.55z"></path><path data-region="Mackay-region" class="inactive" fill="#00A5A4" d="m1149.5 364.62 1.76 4.84-6.02 3.4 3.5 6.39-4.92 4.19-4.82-1.81-1.01 3.28-4.74 8.21-7.91 1.5-14.95-5.71-4.23 5.07-9.42-3.5v4.94l-4.33-6.24-7.34.71-.88 7.3 4.42 5.23-4.42 5.19.01.06 1.2 10.4 4.76 1.39 2.31.67 1.74.5 2.08 2.41-1.12 6.56 3.74 2.87 5.69 1.89 1.76 6.62 2.94 6.15 5.5-.14 5.82 1.15 1.07-3.71 5.83-2.49 5.82-7.41 4.12-1.73 6.4-6.22 5.96 3.95 6.17-1.18 1.98 2.32-2.89 2.83h8.03l.43 8.45-2.85 5.56 2.06 7.19 5.36-6.21 7.02-4.74 1.16-3.77 6.9-2.64 4.46-4.83 1.37-7.27 5.68-1.48 4.28-3.72 1.46-2.28-.4-.69-2.66-4.6-4.7-5.28-1.26-7.57.63-5.2-1.79-4.23-3.61-6.28-3.29-9.27-4.76-4.75-5.52-1.9-4.52-5.51-3.23-3.9-7.27 5.5-8.56-.46z"></path><path data-region="Southern-Great-Barrier-Reef" class="inactive" fill="#00A5A4" d="m1284 495.5-11.7-7.6-.2.3.1-.3-5.6-11.1-6.1-6.8-3.1 1.5-12.2-6.5-2.5-3.1-1.2-3-5.7.1-.2-7.5-1.8-3.9 2.4-2.2-3.7-4.9 1.1-14.6-.8-2.8-1.1-5.9-4.3-.6-.6 8.2-5.1-5.4-4.7-.5-7-10.7-5 1.6 1.9 10.2.9 3-7.8-4.9.4.7-1.4 2.2-4.3 3.8-5.7 1.4-1.3 7.3 4.4 6.1h5.6l1.3 8.7v4.4l5 3 3.7 6.8.9-2 5.5-1.5 9.5 4 1.1 2.3 3.3 4.9 4.8 3.6 2.1 3.5v6.5l-6.9 6.4-1.8 5.9v.1h-.1l-1.6 3.4-.5 11.8-3.9 5.3-1.1 3.3 2.8 3.9 6.1-.2 1.3 10.3 6 3h10.4l7.4-3.2 3.9-4.2 7.6 6.1-.3-7.2 5.7.7 1.5-3.9.1-.2 3.3-4.4 3.5-.5.2-2.7 6.1-4.1 5.2-3.7.4-2.5-6.2-11.7z"></path><path data-region="Fraser-Coast" class="inactive" fill="#00A5A4" d="m1284.75 513.39-6.09 4.08-.22 2.69-3.53.52-3.34 4.67-1.52 3.89 4.86 3.41 3.75.21 5.51-1.07 2.67.64 2.82 1.98 2.3.47 3.76-3.3 4.46-1.87 4.1 1.41 1.32.46-.06-3.27-3.79-5.81.25-1.52-.62-.8.75-6.92-1.9-2.9-2.34-.82-5.52.87-2.21-.87-.19.13v.01l-5.22 3.71zM1302.74,522.21l2.45-3.49,5.18-12.42,2.95-3.59-.59-3.04-1.47-5.25-1.77-.55-1.58,2.4.48,5.09-4.49,4.67-1.79,6.46-.1.87v7.36l.73,1.5Z"></path><path data-region="Sunshine-Coast" class="inactive" fill="#00A5A4" d="m1303.63 569.44 1.33-6.71-1.41-14.83 1.1-4.59 4.65-9.74-3.83-.9-1.31-1.55-4.11-1.41-4.45 1.87-3.77 3.3-2.3-.47-2.82-1.98-2.67-.64-5.51 1.07-3.75-.21-4.86-3.41-5.67-.76.29 7.25 7.7 9.96 3.69 4.8 8.36 3.48 7.06 8.25 4.26 2.96 2.61 2.94 5.41 1.32"></path><path data-region="Gold-Coast" class="inactive" fill="#00A5A4" d="m1311.42 596.01-.3-3.2h-3.03l-1.48.59-2.02.66-1.16 1.44v1.36l.6 1.23.05 2.24-.01.69.78 1.33-.64 2.34-.04 1.93.68 1.45.58 1.45.12 1.12 9.93-.91-2.06-4.29-2-9.43z"></path></g></g><g id="map-0-Fades-2" transform="translate(0.000000, 4.000000)"><rect id="map-0-Rectangle-1" fill="url(#map-0-linearGradient-4)" x="98" y="656" width="1330" height="172"></rect><rect id="map-0-Rectangle-2" fill="url(#map-0-linearGradient-5)" transform="translate(664.000000, 430.500000) rotate(-270.000000) translate(-664.000000, -430.500000) " x="266" y="233" width="796" height="395"></rect><rect id="map-0-Rectangle-3" fill="#FFFFFF" x="0" y="828" width="1435" height="212"></rect><rect id="map-0-Rectangle-4" fill="#FFFFFF" transform="translate(234.500000, 414.000000) scale(1, -1) translate(-234.500000, -414.000000) " x="2" y="0" width="465" height="828"></rect></g></g></g></g></svg>